<?xml version="1.0" encoding="UTF-8" standalone="no"?>
<!DOCTYPE svg PUBLIC "-//W3C//DTD SVG 1.1//EN" "http://www.w3.org/Graphics/SVG/1.1/DTD/svg11.dtd">
<svg width="100%" height="100%" viewBox="0 0 21 105" version="1.1" xmlns="http://www.w3.org/2000/svg" xmlns:xlink="http://www.w3.org/1999/xlink" xml:space="preserve" xmlns:serif="http://www.serif.com/" style="fill-rule:evenodd;clip-rule:evenodd;stroke-linejoin:round;stroke-miterlimit:2;">
    <g transform="matrix(1,0,0,1,-3.22822,-7.24419)">
        <g transform="matrix(0.0475713,0,0,0.200807,0,0)">
            <g transform="matrix(1.28717e-15,-4.97991,21.0211,3.04932e-16,-4573.01,1386.62)">
                <g transform="matrix(0.782146,0,0,0.782146,41.3393,53.5327)">
                    <g transform="matrix(24,0,0,24,166.79,239.997)">
                        <path d="M0.023,-0.148L0.161,-0.169C0.167,-0.142 0.179,-0.122 0.197,-0.108C0.215,-0.094 0.24,-0.087 0.272,-0.087C0.307,-0.087 0.334,-0.094 0.352,-0.107C0.364,-0.116 0.37,-0.128 0.37,-0.144C0.37,-0.154 0.367,-0.163 0.36,-0.169C0.354,-0.176 0.338,-0.182 0.314,-0.188C0.204,-0.212 0.134,-0.234 0.104,-0.254C0.063,-0.282 0.042,-0.321 0.042,-0.371C0.042,-0.416 0.06,-0.454 0.096,-0.484C0.131,-0.515 0.186,-0.53 0.261,-0.53C0.332,-0.53 0.384,-0.519 0.419,-0.496C0.453,-0.472 0.477,-0.438 0.49,-0.393L0.361,-0.369C0.355,-0.389 0.345,-0.405 0.329,-0.416C0.314,-0.426 0.292,-0.432 0.263,-0.432C0.227,-0.432 0.201,-0.427 0.186,-0.417C0.175,-0.409 0.17,-0.4 0.17,-0.389C0.17,-0.379 0.174,-0.371 0.184,-0.364C0.196,-0.355 0.239,-0.342 0.312,-0.325C0.385,-0.309 0.436,-0.288 0.465,-0.264C0.493,-0.24 0.508,-0.206 0.508,-0.162C0.508,-0.115 0.488,-0.074 0.448,-0.04C0.409,-0.005 0.35,0.012 0.272,0.012C0.201,0.012 0.145,-0.003 0.104,-0.031C0.063,-0.06 0.036,-0.099 0.023,-0.148Z" style="fill:rgb(255,120,124);fill-rule:nonzero;"/>
                    </g>
                    <g transform="matrix(24,0,0,24,180.138,239.997)">
                        <path d="M0.31,-0.519L0.31,-0.409L0.216,-0.409L0.216,-0.2C0.216,-0.158 0.217,-0.133 0.219,-0.126C0.22,-0.119 0.224,-0.113 0.231,-0.109C0.237,-0.104 0.245,-0.102 0.254,-0.102C0.267,-0.102 0.285,-0.106 0.309,-0.115L0.321,-0.009C0.289,0.005 0.253,0.012 0.212,0.012C0.188,0.012 0.165,0.008 0.146,-0.001C0.126,-0.009 0.111,-0.02 0.102,-0.033C0.093,-0.046 0.086,-0.064 0.083,-0.086C0.08,-0.102 0.078,-0.135 0.078,-0.183L0.078,-0.409L0.015,-0.409L0.015,-0.519L0.078,-0.519L0.078,-0.622L0.216,-0.702L0.216,-0.519L0.31,-0.519Z" style="fill:rgb(255,120,124);fill-rule:nonzero;"/>
                    </g>
                    <g transform="matrix(24,0,0,24,188.13,239.997)">
                        <path d="M0.372,-0.165L0.509,-0.142C0.491,-0.092 0.463,-0.054 0.426,-0.028C0.388,-0.001 0.34,0.012 0.283,0.012C0.193,0.012 0.126,-0.018 0.083,-0.077C0.049,-0.124 0.032,-0.183 0.032,-0.255C0.032,-0.341 0.054,-0.409 0.099,-0.457C0.144,-0.506 0.201,-0.53 0.27,-0.53C0.347,-0.53 0.408,-0.505 0.452,-0.454C0.497,-0.403 0.518,-0.325 0.516,-0.22L0.172,-0.22C0.173,-0.179 0.184,-0.147 0.206,-0.125C0.227,-0.102 0.253,-0.091 0.285,-0.091C0.306,-0.091 0.324,-0.097 0.339,-0.108C0.354,-0.12 0.365,-0.139 0.372,-0.165ZM0.38,-0.304C0.379,-0.343 0.369,-0.374 0.349,-0.394C0.33,-0.415 0.306,-0.425 0.278,-0.425C0.248,-0.425 0.223,-0.414 0.204,-0.393C0.184,-0.371 0.174,-0.341 0.175,-0.304L0.38,-0.304Z" style="fill:rgb(255,120,124);fill-rule:nonzero;"/>
                    </g>
                    <g transform="matrix(24,0,0,24,201.478,239.997)">
                        <path d="M0.203,-0L0.066,-0L0.066,-0.519L0.193,-0.519L0.193,-0.445C0.215,-0.48 0.235,-0.503 0.252,-0.514C0.27,-0.525 0.289,-0.53 0.312,-0.53C0.343,-0.53 0.373,-0.522 0.402,-0.504L0.359,-0.385C0.336,-0.4 0.315,-0.407 0.295,-0.407C0.276,-0.407 0.259,-0.402 0.246,-0.391C0.233,-0.381 0.222,-0.362 0.215,-0.334C0.207,-0.306 0.203,-0.248 0.203,-0.16L0.203,-0Z" style="fill:rgb(255,120,124);fill-rule:nonzero;"/>
                    </g>
                    <g transform="matrix(24,0,0,24,210.818,239.997)">
                        <path d="M0.372,-0.165L0.509,-0.142C0.491,-0.092 0.463,-0.054 0.426,-0.028C0.388,-0.001 0.34,0.012 0.283,0.012C0.193,0.012 0.126,-0.018 0.083,-0.077C0.049,-0.124 0.032,-0.183 0.032,-0.255C0.032,-0.341 0.054,-0.409 0.099,-0.457C0.144,-0.506 0.201,-0.53 0.27,-0.53C0.347,-0.53 0.408,-0.505 0.452,-0.454C0.497,-0.403 0.518,-0.325 0.516,-0.22L0.172,-0.22C0.173,-0.179 0.184,-0.147 0.206,-0.125C0.227,-0.102 0.253,-0.091 0.285,-0.091C0.306,-0.091 0.324,-0.097 0.339,-0.108C0.354,-0.12 0.365,-0.139 0.372,-0.165ZM0.38,-0.304C0.379,-0.343 0.369,-0.374 0.349,-0.394C0.33,-0.415 0.306,-0.425 0.278,-0.425C0.248,-0.425 0.223,-0.414 0.204,-0.393C0.184,-0.371 0.174,-0.341 0.175,-0.304L0.38,-0.304Z" style="fill:rgb(255,120,124);fill-rule:nonzero;"/>
                    </g>
                    <g transform="matrix(24,0,0,24,224.165,239.997)">
                        <path d="M0.04,-0.267C0.04,-0.312 0.051,-0.356 0.074,-0.399C0.096,-0.442 0.128,-0.474 0.169,-0.497C0.21,-0.519 0.256,-0.53 0.307,-0.53C0.386,-0.53 0.45,-0.505 0.5,-0.454C0.55,-0.403 0.575,-0.339 0.575,-0.261C0.575,-0.182 0.55,-0.117 0.499,-0.066C0.449,-0.014 0.385,0.012 0.308,0.012C0.261,0.012 0.215,0.001 0.172,-0.021C0.129,-0.042 0.096,-0.073 0.074,-0.115C0.051,-0.156 0.04,-0.207 0.04,-0.267ZM0.181,-0.259C0.181,-0.208 0.193,-0.168 0.217,-0.141C0.242,-0.114 0.272,-0.1 0.308,-0.1C0.343,-0.1 0.373,-0.114 0.398,-0.141C0.422,-0.168 0.434,-0.208 0.434,-0.26C0.434,-0.311 0.422,-0.35 0.398,-0.377C0.373,-0.405 0.343,-0.418 0.308,-0.418C0.272,-0.418 0.242,-0.405 0.217,-0.377C0.193,-0.35 0.181,-0.311 0.181,-0.259Z" style="fill:rgb(255,120,124);fill-rule:nonzero;"/>
                    </g>
                    <g transform="matrix(24,0,0,24,238.825,239.997)">
                        <path d="M0.067,-0L0.067,-0.716L0.204,-0.716L0.204,-0.336L0.365,-0.519L0.534,-0.519L0.356,-0.329L0.546,-0L0.398,-0L0.268,-0.233L0.204,-0.166L0.204,-0L0.067,-0Z" style="fill:rgb(255,120,124);fill-rule:nonzero;"/>
                    </g>
                    <g transform="matrix(24,0,0,24,252.173,239.997)">
                        <path d="M0.543,-0L0.406,-0L0.406,-0.265C0.406,-0.321 0.403,-0.357 0.397,-0.373C0.392,-0.39 0.382,-0.403 0.369,-0.412C0.356,-0.421 0.34,-0.425 0.321,-0.425C0.298,-0.425 0.276,-0.419 0.257,-0.406C0.238,-0.393 0.226,-0.375 0.219,-0.354C0.212,-0.333 0.208,-0.293 0.208,-0.235L0.208,-0L0.071,-0L0.071,-0.519L0.198,-0.519L0.198,-0.442C0.243,-0.501 0.3,-0.53 0.369,-0.53C0.399,-0.53 0.427,-0.525 0.452,-0.514C0.477,-0.503 0.496,-0.489 0.509,-0.472C0.522,-0.455 0.531,-0.436 0.536,-0.415C0.541,-0.393 0.543,-0.362 0.543,-0.322L0.543,-0Z" style="fill:rgb(255,120,124);fill-rule:nonzero;"/>
                    </g>
                    <g transform="matrix(24,0,0,24,266.833,239.997)">
                        <path d="M0.072,-0.589L0.072,-0.716L0.209,-0.716L0.209,-0.589L0.072,-0.589ZM0.072,-0L0.072,-0.519L0.209,-0.519L0.209,-0L0.072,-0Z" style="fill:rgb(255,120,124);fill-rule:nonzero;"/>
                    </g>
                    <g transform="matrix(24,0,0,24,273.501,239.997)">
                        <path d="M0.012,-0.519L0.088,-0.519L0.088,-0.558C0.088,-0.601 0.093,-0.634 0.102,-0.655C0.111,-0.677 0.128,-0.694 0.153,-0.708C0.178,-0.721 0.209,-0.728 0.248,-0.728C0.287,-0.728 0.325,-0.722 0.362,-0.71L0.344,-0.615C0.322,-0.62 0.301,-0.623 0.281,-0.623C0.261,-0.623 0.247,-0.618 0.238,-0.609C0.229,-0.599 0.225,-0.582 0.225,-0.555L0.225,-0.519L0.328,-0.519L0.328,-0.411L0.225,-0.411L0.225,-0L0.088,-0L0.088,-0.411L0.012,-0.411L0.012,-0.519Z" style="fill:rgb(255,120,124);fill-rule:nonzero;"/>
                    </g>
                    <g transform="matrix(24,0,0,24,281.493,239.997)">
                        <path d="M0.372,-0.165L0.509,-0.142C0.491,-0.092 0.463,-0.054 0.426,-0.028C0.388,-0.001 0.34,0.012 0.283,0.012C0.193,0.012 0.126,-0.018 0.083,-0.077C0.049,-0.124 0.032,-0.183 0.032,-0.255C0.032,-0.341 0.054,-0.409 0.099,-0.457C0.144,-0.506 0.201,-0.53 0.27,-0.53C0.347,-0.53 0.408,-0.505 0.452,-0.454C0.497,-0.403 0.518,-0.325 0.516,-0.22L0.172,-0.22C0.173,-0.179 0.184,-0.147 0.206,-0.125C0.227,-0.102 0.253,-0.091 0.285,-0.091C0.306,-0.091 0.324,-0.097 0.339,-0.108C0.354,-0.12 0.365,-0.139 0.372,-0.165ZM0.38,-0.304C0.379,-0.343 0.369,-0.374 0.349,-0.394C0.33,-0.415 0.306,-0.425 0.278,-0.425C0.248,-0.425 0.223,-0.414 0.204,-0.393C0.184,-0.371 0.174,-0.341 0.175,-0.304L0.38,-0.304Z" style="fill:rgb(255,120,124);fill-rule:nonzero;"/>
                    </g>
                </g>
                <g transform="matrix(24,0,0,24,166.79,239.997)">
                    <path d="M0.435,-0.107C0.324,-0.107 0.239,-0.071 0.179,-0C0.146,-0.039 0.112,-0.059 0.078,-0.059C0.045,-0.059 0.021,-0.039 0.006,-0L0,-0C0.003,-0.048 0.014,-0.082 0.033,-0.103C0.043,-0.114 0.063,-0.126 0.092,-0.14C0.121,-0.154 0.142,-0.169 0.154,-0.185C0.163,-0.169 0.179,-0.151 0.2,-0.132C0.223,-0.111 0.243,-0.1 0.259,-0.1C0.27,-0.1 0.275,-0.106 0.275,-0.119L0.275,-0.209C0.275,-0.254 0.246,-0.276 0.189,-0.276C0.132,-0.276 0.089,-0.256 0.062,-0.216L0.062,-0.329C0.062,-0.38 0.044,-0.416 0.007,-0.437C0.057,-0.437 0.107,-0.448 0.157,-0.469C0.211,-0.492 0.251,-0.523 0.276,-0.562C0.308,-0.501 0.355,-0.46 0.418,-0.437L0.411,-0.437C0.382,-0.437 0.358,-0.428 0.337,-0.41C0.316,-0.391 0.303,-0.367 0.298,-0.338C0.289,-0.363 0.275,-0.388 0.256,-0.411C0.233,-0.44 0.21,-0.455 0.189,-0.455C0.178,-0.455 0.173,-0.449 0.173,-0.437C0.173,-0.39 0.177,-0.358 0.184,-0.34C0.197,-0.309 0.223,-0.293 0.262,-0.293C0.309,-0.293 0.351,-0.314 0.387,-0.355L0.387,-0.208C0.387,-0.16 0.403,-0.126 0.435,-0.107Z" style="fill:rgb(36,82,187);fill-rule:nonzero;"/>
                </g>
                <g transform="matrix(24,0,0,24,177.638,239.997)">
                    <path d="M0.272,-0.36L0.25,-0.36L0.25,-0.378C0.251,-0.383 0.251,-0.389 0.251,-0.396C0.251,-0.42 0.247,-0.436 0.238,-0.444C0.229,-0.452 0.211,-0.456 0.186,-0.456L0.186,-0.229C0.186,-0.167 0.205,-0.127 0.243,-0.109C0.212,-0.092 0.189,-0.077 0.176,-0.065C0.161,-0.05 0.145,-0.029 0.129,-0C0.111,-0.031 0.095,-0.053 0.082,-0.066C0.073,-0.075 0.05,-0.09 0.014,-0.109C0.037,-0.12 0.052,-0.136 0.06,-0.159C0.065,-0.174 0.068,-0.198 0.068,-0.229L0.068,-0.456L0,-0.456L0,-0.501L0.068,-0.501L0.068,-0.605C0.068,-0.623 0.059,-0.64 0.04,-0.656C0.038,-0.658 0.028,-0.666 0.009,-0.681L0.01,-0.682C0.026,-0.684 0.049,-0.689 0.078,-0.697C0.093,-0.702 0.124,-0.722 0.169,-0.755C0.204,-0.78 0.237,-0.795 0.27,-0.8L0.269,-0.787C0.214,-0.77 0.186,-0.709 0.186,-0.606L0.186,-0.501C0.217,-0.501 0.236,-0.505 0.243,-0.514C0.248,-0.52 0.25,-0.539 0.25,-0.572L0.272,-0.572L0.272,-0.36Z" style="fill:rgb(36,82,187);fill-rule:nonzero;"/>
                </g>
                <g transform="matrix(24,0,0,24,184.79,239.997)">
                    <path d="M0.371,-0.119C0.337,-0.116 0.304,-0.103 0.271,-0.08C0.238,-0.057 0.212,-0.031 0.195,-0C0.178,-0.029 0.151,-0.055 0.112,-0.078C0.077,-0.099 0.041,-0.112 0.004,-0.119C0.042,-0.136 0.061,-0.165 0.061,-0.205L0.061,-0.333C0.061,-0.385 0.041,-0.422 0,-0.445C0.052,-0.445 0.1,-0.454 0.145,-0.473C0.194,-0.494 0.233,-0.524 0.26,-0.563C0.276,-0.532 0.291,-0.509 0.304,-0.493C0.321,-0.474 0.343,-0.458 0.371,-0.445C0.354,-0.43 0.342,-0.406 0.333,-0.372C0.324,-0.335 0.313,-0.309 0.301,-0.296C0.278,-0.269 0.236,-0.248 0.176,-0.233L0.175,-0.216C0.172,-0.171 0.195,-0.142 0.244,-0.128C0.269,-0.121 0.311,-0.118 0.371,-0.119ZM0.263,-0.341C0.263,-0.36 0.253,-0.384 0.233,-0.412C0.213,-0.439 0.194,-0.453 0.176,-0.453L0.176,-0.256C0.199,-0.261 0.219,-0.27 0.237,-0.285C0.254,-0.3 0.263,-0.318 0.263,-0.341Z" style="fill:rgb(36,82,187);fill-rule:nonzero;"/>
                </g>
                <g transform="matrix(24,0,0,24,193.982,239.997)">
                    <path d="M0.389,-0.437C0.365,-0.426 0.345,-0.399 0.328,-0.354C0.316,-0.322 0.307,-0.287 0.302,-0.249L0.301,-0.249C0.299,-0.28 0.29,-0.314 0.274,-0.353C0.254,-0.401 0.232,-0.425 0.209,-0.425C0.189,-0.425 0.179,-0.409 0.179,-0.376L0.179,-0.173C0.209,-0.139 0.238,-0.119 0.265,-0.112C0.279,-0.109 0.314,-0.107 0.371,-0.107C0.334,-0.095 0.302,-0.081 0.277,-0.065C0.257,-0.052 0.231,-0.031 0.198,-0C0.183,-0.027 0.155,-0.051 0.113,-0.074C0.07,-0.096 0.033,-0.107 0.001,-0.107C0.016,-0.108 0.031,-0.123 0.044,-0.152C0.056,-0.178 0.062,-0.2 0.062,-0.218L0.062,-0.331C0.062,-0.378 0.041,-0.414 0,-0.437C0.043,-0.437 0.082,-0.479 0.115,-0.562C0.141,-0.493 0.171,-0.459 0.205,-0.459C0.239,-0.459 0.27,-0.493 0.299,-0.562L0.331,-0.489C0.344,-0.466 0.364,-0.448 0.389,-0.437Z" style="fill:rgb(36,82,187);fill-rule:nonzero;"/>
                </g>
                <g transform="matrix(24,0,0,24,203.558,239.997)">
                    <path d="M0.371,-0.119C0.337,-0.116 0.304,-0.103 0.271,-0.08C0.238,-0.057 0.212,-0.031 0.195,-0C0.178,-0.029 0.151,-0.055 0.112,-0.078C0.077,-0.099 0.041,-0.112 0.004,-0.119C0.042,-0.136 0.061,-0.165 0.061,-0.205L0.061,-0.333C0.061,-0.385 0.041,-0.422 0,-0.445C0.052,-0.445 0.1,-0.454 0.145,-0.473C0.194,-0.494 0.233,-0.524 0.26,-0.563C0.276,-0.532 0.291,-0.509 0.304,-0.493C0.321,-0.474 0.343,-0.458 0.371,-0.445C0.354,-0.43 0.342,-0.406 0.333,-0.372C0.324,-0.335 0.313,-0.309 0.301,-0.296C0.278,-0.269 0.236,-0.248 0.176,-0.233L0.175,-0.216C0.172,-0.171 0.195,-0.142 0.244,-0.128C0.269,-0.121 0.311,-0.118 0.371,-0.119ZM0.263,-0.341C0.263,-0.36 0.253,-0.384 0.233,-0.412C0.213,-0.439 0.194,-0.453 0.176,-0.453L0.176,-0.256C0.199,-0.261 0.219,-0.27 0.237,-0.285C0.254,-0.3 0.263,-0.318 0.263,-0.341Z" style="fill:rgb(36,82,187);fill-rule:nonzero;"/>
                </g>
                <g transform="matrix(24,0,0,24,212.75,239.997)">
                    <path d="M0.428,-0.12C0.317,-0.118 0.239,-0.078 0.195,-0C0.18,-0.027 0.151,-0.053 0.109,-0.079C0.066,-0.105 0.03,-0.119 0,-0.12C0.016,-0.121 0.029,-0.134 0.04,-0.161C0.049,-0.184 0.054,-0.204 0.054,-0.222L0.054,-0.334C0.054,-0.389 0.036,-0.426 0.001,-0.446C0.046,-0.446 0.089,-0.456 0.132,-0.476C0.178,-0.497 0.211,-0.526 0.232,-0.562C0.246,-0.537 0.275,-0.512 0.318,-0.487C0.361,-0.461 0.398,-0.447 0.427,-0.446C0.391,-0.437 0.373,-0.402 0.373,-0.34L0.373,-0.228C0.373,-0.175 0.391,-0.139 0.428,-0.12ZM0.263,-0.11L0.263,-0.335C0.263,-0.364 0.253,-0.39 0.232,-0.413C0.221,-0.425 0.199,-0.443 0.164,-0.466L0.164,-0.223C0.164,-0.179 0.197,-0.141 0.263,-0.11Z" style="fill:rgb(36,82,187);fill-rule:nonzero;"/>
                </g>
                <g transform="matrix(24,0,0,24,223.406,239.997)">
                    <path d="M0.463,-0.123C0.435,-0.108 0.413,-0.09 0.398,-0.071C0.389,-0.06 0.374,-0.037 0.353,-0C0.332,-0.037 0.317,-0.06 0.308,-0.071C0.293,-0.09 0.271,-0.108 0.243,-0.123C0.272,-0.138 0.287,-0.163 0.287,-0.197C0.287,-0.233 0.275,-0.257 0.25,-0.27C0.227,-0.259 0.202,-0.252 0.176,-0.247L0.176,-0.231C0.176,-0.202 0.179,-0.18 0.185,-0.166C0.193,-0.148 0.209,-0.134 0.233,-0.123C0.206,-0.109 0.184,-0.092 0.166,-0.071C0.154,-0.058 0.138,-0.034 0.119,-0C0.1,-0.032 0.084,-0.056 0.071,-0.071C0.054,-0.091 0.031,-0.108 0.003,-0.123C0.026,-0.134 0.042,-0.149 0.049,-0.166C0.054,-0.179 0.057,-0.2 0.057,-0.229L0.057,-0.343C0.057,-0.398 0.039,-0.437 0.002,-0.459C0.027,-0.476 0.044,-0.493 0.051,-0.511C0.056,-0.523 0.058,-0.546 0.058,-0.581C0.058,-0.636 0.039,-0.671 0,-0.687C0.005,-0.686 0.011,-0.686 0.019,-0.686C0.05,-0.686 0.093,-0.705 0.147,-0.744C0.2,-0.782 0.241,-0.801 0.269,-0.801C0.298,-0.801 0.324,-0.793 0.346,-0.777C0.367,-0.761 0.378,-0.74 0.378,-0.713C0.378,-0.695 0.372,-0.68 0.361,-0.667C0.349,-0.654 0.334,-0.648 0.316,-0.648C0.279,-0.648 0.261,-0.665 0.261,-0.699C0.261,-0.713 0.265,-0.725 0.274,-0.734C0.283,-0.743 0.294,-0.748 0.307,-0.748C0.332,-0.748 0.346,-0.732 0.35,-0.699C0.351,-0.706 0.352,-0.71 0.352,-0.713C0.352,-0.729 0.345,-0.743 0.332,-0.754C0.319,-0.764 0.303,-0.77 0.285,-0.77C0.246,-0.77 0.218,-0.751 0.199,-0.713C0.184,-0.682 0.176,-0.647 0.176,-0.606L0.176,-0.473C0.221,-0.473 0.254,-0.481 0.275,-0.496C0.294,-0.509 0.313,-0.537 0.334,-0.58C0.347,-0.554 0.363,-0.53 0.38,-0.507C0.405,-0.475 0.427,-0.459 0.444,-0.459C0.408,-0.45 0.381,-0.431 0.363,-0.404C0.352,-0.386 0.334,-0.358 0.31,-0.321C0.322,-0.324 0.332,-0.326 0.341,-0.326C0.376,-0.326 0.407,-0.31 0.434,-0.278C0.414,-0.254 0.404,-0.229 0.404,-0.204C0.404,-0.169 0.424,-0.142 0.463,-0.123ZM0.297,-0.372C0.297,-0.396 0.288,-0.415 0.271,-0.428C0.253,-0.441 0.232,-0.448 0.207,-0.448C0.198,-0.448 0.187,-0.447 0.176,-0.445L0.176,-0.272C0.209,-0.277 0.236,-0.287 0.257,-0.301C0.284,-0.319 0.297,-0.343 0.297,-0.372Z" style="fill:rgb(36,82,187);fill-rule:nonzero;"/>
                </g>
                <g transform="matrix(24,0,0,24,234.926,239.997)">
                    <path d="M0.431,-0.119C0.404,-0.104 0.382,-0.088 0.367,-0.069C0.36,-0.06 0.345,-0.037 0.324,-0C0.304,-0.035 0.29,-0.057 0.281,-0.068C0.264,-0.089 0.243,-0.106 0.218,-0.119C0.241,-0.13 0.256,-0.144 0.263,-0.162C0.268,-0.174 0.27,-0.195 0.27,-0.224L0.27,-0.358C0.27,-0.377 0.266,-0.394 0.257,-0.409C0.247,-0.426 0.233,-0.435 0.215,-0.435C0.197,-0.435 0.183,-0.426 0.173,-0.409C0.164,-0.394 0.16,-0.377 0.16,-0.358L0.16,-0.224C0.16,-0.195 0.163,-0.175 0.168,-0.162C0.175,-0.144 0.19,-0.13 0.213,-0.119C0.187,-0.105 0.166,-0.088 0.149,-0.068C0.14,-0.058 0.126,-0.035 0.106,-0C0.097,-0.017 0.082,-0.04 0.063,-0.069C0.046,-0.088 0.025,-0.105 0,-0.119C0.023,-0.13 0.038,-0.144 0.045,-0.162C0.05,-0.175 0.053,-0.195 0.053,-0.224L0.053,-0.358C0.053,-0.398 0.035,-0.427 0,-0.445C0.029,-0.46 0.051,-0.476 0.065,-0.493C0.076,-0.506 0.09,-0.529 0.106,-0.562C0.142,-0.489 0.178,-0.453 0.215,-0.453C0.252,-0.453 0.288,-0.489 0.324,-0.562C0.343,-0.525 0.357,-0.501 0.365,-0.492C0.378,-0.477 0.4,-0.461 0.431,-0.445C0.396,-0.428 0.378,-0.399 0.378,-0.358L0.378,-0.224C0.378,-0.197 0.381,-0.176 0.386,-0.162C0.393,-0.145 0.408,-0.13 0.431,-0.119Z" style="fill:rgb(36,82,187);fill-rule:nonzero;"/>
                </g>
                <g transform="matrix(24,0,0,24,245.846,239.997)">
                    <path d="M0.213,-0.681C0.166,-0.66 0.13,-0.622 0.107,-0.569C0.085,-0.625 0.05,-0.662 0.001,-0.681C0.053,-0.706 0.088,-0.745 0.107,-0.8C0.13,-0.741 0.166,-0.701 0.213,-0.681ZM0.213,-0.119C0.187,-0.105 0.166,-0.088 0.15,-0.068C0.141,-0.056 0.126,-0.033 0.107,-0C0.087,-0.035 0.073,-0.057 0.064,-0.068C0.047,-0.089 0.026,-0.106 0.001,-0.119C0.024,-0.13 0.039,-0.144 0.046,-0.161C0.051,-0.173 0.053,-0.194 0.053,-0.224L0.053,-0.357C0.053,-0.4 0.035,-0.429 0,-0.444C0.023,-0.444 0.046,-0.458 0.068,-0.487C0.085,-0.509 0.098,-0.534 0.107,-0.562C0.116,-0.537 0.129,-0.513 0.148,-0.489C0.171,-0.46 0.192,-0.445 0.213,-0.444C0.178,-0.428 0.161,-0.399 0.161,-0.357L0.161,-0.224C0.161,-0.193 0.163,-0.172 0.168,-0.161C0.175,-0.144 0.19,-0.13 0.213,-0.119Z" style="fill:rgb(36,82,187);fill-rule:nonzero;"/>
                </g>
                <g transform="matrix(24,0,0,24,251.438,239.997)">
                    <path d="M0.365,-0.684C0.312,-0.661 0.284,-0.613 0.281,-0.542L0.274,-0.37L0.256,-0.37L0.253,-0.448L0.189,-0.448L0.189,-0.227C0.189,-0.159 0.23,-0.125 0.312,-0.125C0.321,-0.125 0.331,-0.126 0.343,-0.127L0.343,-0.119C0.304,-0.119 0.268,-0.108 0.234,-0.086C0.2,-0.064 0.175,-0.035 0.158,-0C0.145,-0.028 0.124,-0.053 0.097,-0.076C0.07,-0.099 0.041,-0.114 0.01,-0.122C0.03,-0.126 0.046,-0.139 0.057,-0.161C0.066,-0.179 0.071,-0.2 0.071,-0.223L0.071,-0.448L0.002,-0.448L0.002,-0.484L0.071,-0.484L0.071,-0.51C0.072,-0.517 0.072,-0.526 0.072,-0.536C0.072,-0.608 0.048,-0.655 0,-0.676C0.043,-0.676 0.083,-0.686 0.118,-0.707C0.158,-0.73 0.183,-0.761 0.193,-0.8C0.224,-0.742 0.282,-0.703 0.365,-0.684ZM0.251,-0.484C0.251,-0.501 0.25,-0.521 0.249,-0.542C0.246,-0.579 0.23,-0.613 0.201,-0.644C0.172,-0.674 0.139,-0.689 0.102,-0.688C0.142,-0.661 0.167,-0.632 0.178,-0.601C0.185,-0.58 0.189,-0.541 0.189,-0.484L0.251,-0.484Z" style="fill:rgb(36,82,187);fill-rule:nonzero;"/>
                </g>
                <g transform="matrix(24,0,0,24,260.462,239.997)">
                    <path d="M0.371,-0.119C0.337,-0.116 0.304,-0.103 0.271,-0.08C0.238,-0.057 0.212,-0.031 0.195,-0C0.178,-0.029 0.151,-0.055 0.112,-0.078C0.077,-0.099 0.041,-0.112 0.004,-0.119C0.042,-0.136 0.061,-0.165 0.061,-0.205L0.061,-0.333C0.061,-0.385 0.041,-0.422 0,-0.445C0.052,-0.445 0.1,-0.454 0.145,-0.473C0.194,-0.494 0.233,-0.524 0.26,-0.563C0.276,-0.532 0.291,-0.509 0.304,-0.493C0.321,-0.474 0.343,-0.458 0.371,-0.445C0.354,-0.43 0.342,-0.406 0.333,-0.372C0.324,-0.335 0.313,-0.309 0.301,-0.296C0.278,-0.269 0.236,-0.248 0.176,-0.233L0.175,-0.216C0.172,-0.171 0.195,-0.142 0.244,-0.128C0.269,-0.121 0.311,-0.118 0.371,-0.119ZM0.263,-0.341C0.263,-0.36 0.253,-0.384 0.233,-0.412C0.213,-0.439 0.194,-0.453 0.176,-0.453L0.176,-0.256C0.199,-0.261 0.219,-0.27 0.237,-0.285C0.254,-0.3 0.263,-0.318 0.263,-0.341Z" style="fill:rgb(36,82,187);fill-rule:nonzero;"/>
                </g>
            </g>
        </g>
    </g>
</svg>
