<?xml version="1.0" encoding="UTF-8" standalone="no"?>
<!DOCTYPE svg PUBLIC "-//W3C//DTD SVG 1.1//EN" "http://www.w3.org/Graphics/SVG/1.1/DTD/svg11.dtd">
<svg width="100%" height="100%" viewBox="0 0 236 50" version="1.1" xmlns="http://www.w3.org/2000/svg" xmlns:xlink="http://www.w3.org/1999/xlink" xml:space="preserve" xmlns:serif="http://www.serif.com/" style="fill-rule:evenodd;clip-rule:evenodd;stroke-linejoin:round;stroke-miterlimit:2;">
    <g transform="matrix(2,0,0,2,-202.291,-673.458)">
        <g>
            <g>
                <g transform="matrix(25.0712,0,0,25.7079,104.184,361.146)">
                    <path d="M0.239,0.012C0.357,0.012 0.435,-0.041 0.435,-0.14C0.435,-0.237 0.366,-0.279 0.267,-0.312C0.213,-0.33 0.167,-0.348 0.167,-0.379C0.167,-0.406 0.194,-0.421 0.236,-0.421C0.283,-0.421 0.313,-0.402 0.338,-0.378L0.419,-0.444C0.384,-0.485 0.324,-0.523 0.236,-0.523C0.135,-0.523 0.054,-0.473 0.054,-0.381C0.054,-0.295 0.112,-0.252 0.223,-0.215C0.281,-0.192 0.322,-0.176 0.322,-0.14C0.322,-0.103 0.287,-0.09 0.239,-0.09C0.183,-0.09 0.141,-0.123 0.12,-0.144L0.04,-0.076C0.078,-0.022 0.157,0.012 0.239,0.012Z" style="fill:rgb(255,120,125);fill-rule:nonzero;"/>
                </g>
                <g transform="matrix(29.1446,0,0,29.1446,101.145,360.074)">
                    <path d="M0.435,-0.107C0.324,-0.107 0.239,-0.071 0.179,0C0.146,-0.039 0.112,-0.059 0.078,-0.059C0.045,-0.059 0.021,-0.039 0.006,0L0,0C0.003,-0.048 0.014,-0.082 0.033,-0.103C0.043,-0.114 0.063,-0.126 0.092,-0.14C0.121,-0.154 0.142,-0.169 0.154,-0.185C0.163,-0.169 0.179,-0.151 0.2,-0.132C0.223,-0.111 0.243,-0.1 0.259,-0.1C0.27,-0.1 0.275,-0.106 0.275,-0.119L0.275,-0.209C0.275,-0.254 0.246,-0.276 0.189,-0.276C0.132,-0.276 0.089,-0.256 0.062,-0.216L0.062,-0.329C0.062,-0.38 0.044,-0.416 0.007,-0.437C0.057,-0.437 0.107,-0.448 0.157,-0.469C0.211,-0.492 0.251,-0.523 0.276,-0.562C0.308,-0.501 0.355,-0.46 0.418,-0.437L0.411,-0.437C0.382,-0.437 0.358,-0.428 0.337,-0.41C0.316,-0.391 0.303,-0.367 0.298,-0.338C0.289,-0.363 0.275,-0.388 0.256,-0.411C0.233,-0.44 0.21,-0.455 0.189,-0.455C0.178,-0.455 0.173,-0.449 0.173,-0.437C0.173,-0.39 0.177,-0.358 0.184,-0.34C0.197,-0.309 0.223,-0.293 0.262,-0.293C0.309,-0.293 0.351,-0.314 0.387,-0.355L0.387,-0.208C0.387,-0.16 0.403,-0.126 0.435,-0.107Z" style="fill:rgb(36,82,187);fill-rule:nonzero;"/>
                </g>
            </g>
            <g>
                <g transform="matrix(25.0712,0,0,25.7079,116.093,361.146)">
                    <path d="M0.391,0L0.508,0L0.508,-0.314C0.508,-0.47 0.424,-0.523 0.327,-0.523C0.269,-0.523 0.225,-0.503 0.192,-0.463L0.192,-0.511L0.075,-0.511L0.075,0L0.192,0L0.192,-0.295C0.192,-0.379 0.233,-0.412 0.296,-0.412C0.355,-0.412 0.391,-0.377 0.391,-0.293L0.391,0Z" style="fill:rgb(255,120,125);fill-rule:nonzero;"/>
                </g>
                <g transform="matrix(29.1446,0,0,29.1446,115.193,360.074)">
                    <path d="M0.431,-0.119C0.404,-0.104 0.382,-0.088 0.367,-0.069C0.36,-0.06 0.345,-0.037 0.324,0C0.304,-0.035 0.29,-0.057 0.281,-0.068C0.264,-0.089 0.243,-0.106 0.218,-0.119C0.241,-0.13 0.256,-0.144 0.263,-0.162C0.268,-0.174 0.27,-0.195 0.27,-0.224L0.27,-0.358C0.27,-0.377 0.266,-0.394 0.257,-0.409C0.247,-0.426 0.233,-0.435 0.215,-0.435C0.197,-0.435 0.183,-0.426 0.173,-0.409C0.164,-0.394 0.16,-0.377 0.16,-0.358L0.16,-0.224C0.16,-0.195 0.163,-0.175 0.168,-0.162C0.175,-0.144 0.19,-0.13 0.213,-0.119C0.187,-0.105 0.166,-0.088 0.149,-0.068C0.14,-0.058 0.126,-0.035 0.106,0C0.097,-0.017 0.082,-0.04 0.063,-0.069C0.046,-0.088 0.025,-0.105 0,-0.119C0.023,-0.13 0.038,-0.144 0.045,-0.162C0.05,-0.175 0.053,-0.195 0.053,-0.224L0.053,-0.358C0.053,-0.398 0.035,-0.427 0,-0.445C0.029,-0.46 0.051,-0.476 0.065,-0.493C0.076,-0.506 0.09,-0.529 0.106,-0.562C0.142,-0.489 0.178,-0.453 0.215,-0.453C0.252,-0.453 0.288,-0.489 0.324,-0.562C0.343,-0.525 0.357,-0.501 0.365,-0.492C0.378,-0.477 0.4,-0.461 0.431,-0.445C0.396,-0.428 0.378,-0.399 0.378,-0.358L0.378,-0.224C0.378,-0.197 0.381,-0.176 0.386,-0.162C0.393,-0.145 0.408,-0.13 0.431,-0.119Z" style="fill:rgb(36,82,187);fill-rule:nonzero;"/>
                </g>
            </g>
            <g>
                <g transform="matrix(25.0712,0,0,25.7079,130.333,361.146)">
                    <path d="M0.366,0L0.48,0L0.48,-0.329C0.48,-0.501 0.368,-0.523 0.278,-0.523C0.192,-0.523 0.124,-0.498 0.078,-0.467L0.114,-0.372C0.157,-0.402 0.204,-0.42 0.266,-0.42C0.333,-0.42 0.366,-0.394 0.366,-0.327L0.366,-0.3C0.334,-0.318 0.293,-0.327 0.245,-0.327C0.144,-0.327 0.045,-0.276 0.045,-0.158C0.045,-0.046 0.125,0.012 0.23,0.012C0.298,0.012 0.341,-0.015 0.366,-0.041L0.366,0ZM0.252,-0.091C0.191,-0.091 0.159,-0.118 0.159,-0.158C0.159,-0.207 0.206,-0.227 0.264,-0.227C0.302,-0.227 0.339,-0.219 0.366,-0.206L0.366,-0.14C0.34,-0.113 0.302,-0.091 0.252,-0.091Z" style="fill:rgb(255,120,125);fill-rule:nonzero;"/>
                </g>
                <g transform="matrix(29.1446,0,0,29.1446,129.328,360.074)">
                    <path d="M0.427,-0.115C0.399,-0.1 0.378,-0.084 0.363,-0.067C0.351,-0.054 0.337,-0.031 0.321,0C0.284,-0.067 0.247,-0.101 0.211,-0.101C0.174,-0.101 0.137,-0.067 0.1,0C0.081,-0.036 0.068,-0.058 0.061,-0.067C0.046,-0.085 0.026,-0.101 0,-0.115C0.035,-0.126 0.052,-0.157 0.052,-0.209C0.052,-0.246 0.042,-0.273 0.022,-0.292C0.043,-0.282 0.062,-0.277 0.079,-0.277C0.099,-0.277 0.121,-0.286 0.146,-0.304C0.171,-0.322 0.189,-0.331 0.202,-0.331C0.219,-0.331 0.238,-0.322 0.259,-0.303L0.259,-0.373C0.259,-0.388 0.254,-0.401 0.245,-0.414C0.235,-0.426 0.223,-0.432 0.21,-0.432C0.174,-0.432 0.137,-0.398 0.1,-0.331C0.081,-0.366 0.068,-0.388 0.061,-0.397C0.048,-0.414 0.027,-0.43 0,-0.444C0.029,-0.458 0.05,-0.474 0.063,-0.492C0.071,-0.503 0.083,-0.527 0.1,-0.563C0.135,-0.488 0.172,-0.451 0.211,-0.451C0.25,-0.451 0.286,-0.488 0.321,-0.563C0.336,-0.53 0.349,-0.507 0.361,-0.492C0.376,-0.475 0.398,-0.459 0.427,-0.444C0.411,-0.437 0.398,-0.425 0.388,-0.408C0.378,-0.391 0.373,-0.374 0.373,-0.356L0.373,-0.221C0.373,-0.192 0.376,-0.171 0.381,-0.158C0.388,-0.141 0.403,-0.126 0.427,-0.115ZM0.259,-0.2L0.259,-0.263C0.248,-0.291 0.231,-0.305 0.208,-0.305C0.178,-0.305 0.163,-0.275 0.163,-0.214C0.163,-0.185 0.165,-0.165 0.168,-0.154C0.175,-0.132 0.189,-0.121 0.21,-0.121C0.243,-0.121 0.259,-0.147 0.259,-0.2Z" style="fill:rgb(36,82,187);fill-rule:nonzero;"/>
                </g>
            </g>
            <g>
                <g transform="matrix(25.0712,0,0,25.7079,143.746,361.146)">
                    <path d="M0.286,0.012C0.368,0.012 0.428,-0.02 0.468,-0.068L0.394,-0.144C0.367,-0.108 0.331,-0.091 0.286,-0.091C0.225,-0.091 0.17,-0.136 0.166,-0.211L0.505,-0.211C0.508,-0.234 0.509,-0.262 0.509,-0.283C0.509,-0.447 0.409,-0.523 0.286,-0.523C0.143,-0.523 0.05,-0.423 0.05,-0.256C0.05,-0.088 0.141,0.012 0.286,0.012ZM0.167,-0.308C0.173,-0.388 0.223,-0.42 0.286,-0.42C0.339,-0.42 0.388,-0.386 0.393,-0.308L0.167,-0.308Z" style="fill:rgb(255,120,125);fill-rule:nonzero;"/>
                </g>
                <g transform="matrix(29.1446,0,0,29.1446,143.289,360.074)">
                    <path d="M0.371,-0.119C0.337,-0.116 0.304,-0.103 0.271,-0.08C0.238,-0.057 0.212,-0.031 0.195,0C0.178,-0.029 0.151,-0.055 0.112,-0.078C0.077,-0.099 0.041,-0.112 0.004,-0.119C0.042,-0.136 0.061,-0.165 0.061,-0.205L0.061,-0.333C0.061,-0.385 0.041,-0.422 0,-0.445C0.052,-0.445 0.1,-0.454 0.145,-0.473C0.194,-0.494 0.233,-0.524 0.26,-0.563C0.276,-0.532 0.291,-0.509 0.304,-0.493C0.321,-0.474 0.343,-0.458 0.371,-0.445C0.354,-0.43 0.342,-0.406 0.333,-0.372C0.324,-0.335 0.313,-0.309 0.301,-0.296C0.278,-0.269 0.236,-0.248 0.176,-0.233L0.175,-0.216C0.172,-0.171 0.195,-0.142 0.244,-0.128C0.269,-0.121 0.311,-0.118 0.371,-0.119ZM0.263,-0.341C0.263,-0.36 0.253,-0.384 0.233,-0.412C0.213,-0.439 0.194,-0.453 0.176,-0.453L0.176,-0.256C0.199,-0.261 0.219,-0.27 0.237,-0.285C0.254,-0.3 0.263,-0.318 0.263,-0.341Z" style="fill:rgb(36,82,187);fill-rule:nonzero;"/>
                </g>
            </g>
            <g>
                <g transform="matrix(25.0712,0,0,25.7079,157.385,361.146)">
                    <path d="M0.523,0L0.333,-0.366L0.478,-0.511L0.336,-0.511L0.192,-0.363L0.192,-0.722L0.075,-0.667L0.075,0L0.192,0L0.192,-0.226L0.249,-0.282L0.395,0L0.523,0Z" style="fill:rgb(255,120,125);fill-rule:nonzero;"/>
                </g>
                <g transform="matrix(29.1446,0,0,29.1446,155.325,360.074)">
                    <path d="M0.463,-0.123C0.435,-0.108 0.413,-0.09 0.398,-0.071C0.389,-0.06 0.374,-0.037 0.353,0C0.332,-0.037 0.317,-0.06 0.308,-0.071C0.293,-0.09 0.271,-0.108 0.243,-0.123C0.272,-0.138 0.287,-0.163 0.287,-0.197C0.287,-0.233 0.275,-0.257 0.25,-0.27C0.227,-0.259 0.202,-0.252 0.176,-0.247L0.176,-0.231C0.176,-0.202 0.179,-0.18 0.185,-0.166C0.193,-0.148 0.209,-0.134 0.233,-0.123C0.206,-0.109 0.184,-0.092 0.166,-0.071C0.154,-0.058 0.138,-0.034 0.119,0C0.1,-0.032 0.084,-0.056 0.071,-0.071C0.054,-0.091 0.031,-0.108 0.003,-0.123C0.026,-0.134 0.042,-0.149 0.049,-0.166C0.054,-0.179 0.057,-0.2 0.057,-0.229L0.057,-0.343C0.057,-0.398 0.039,-0.437 0.002,-0.459C0.027,-0.476 0.044,-0.493 0.051,-0.511C0.056,-0.523 0.058,-0.546 0.058,-0.581C0.058,-0.636 0.039,-0.671 0,-0.687C0.005,-0.686 0.011,-0.686 0.019,-0.686C0.05,-0.686 0.093,-0.705 0.147,-0.744C0.2,-0.782 0.241,-0.801 0.269,-0.801C0.298,-0.801 0.324,-0.793 0.346,-0.777C0.367,-0.761 0.378,-0.74 0.378,-0.713C0.378,-0.695 0.372,-0.68 0.361,-0.667C0.349,-0.654 0.334,-0.648 0.316,-0.648C0.279,-0.648 0.261,-0.665 0.261,-0.699C0.261,-0.713 0.265,-0.725 0.274,-0.734C0.283,-0.743 0.294,-0.748 0.307,-0.748C0.332,-0.748 0.346,-0.732 0.35,-0.699C0.351,-0.706 0.352,-0.71 0.352,-0.713C0.352,-0.729 0.345,-0.743 0.332,-0.754C0.319,-0.764 0.303,-0.77 0.285,-0.77C0.246,-0.77 0.218,-0.751 0.199,-0.713C0.184,-0.682 0.176,-0.647 0.176,-0.606L0.176,-0.473C0.221,-0.473 0.254,-0.481 0.275,-0.496C0.294,-0.509 0.313,-0.537 0.334,-0.58C0.347,-0.554 0.363,-0.53 0.38,-0.507C0.405,-0.475 0.427,-0.459 0.444,-0.459C0.408,-0.45 0.381,-0.431 0.363,-0.404C0.352,-0.386 0.334,-0.358 0.31,-0.321C0.322,-0.324 0.332,-0.326 0.341,-0.326C0.376,-0.326 0.407,-0.31 0.434,-0.278C0.414,-0.254 0.404,-0.229 0.404,-0.204C0.404,-0.169 0.424,-0.142 0.463,-0.123ZM0.297,-0.372C0.297,-0.396 0.288,-0.415 0.271,-0.428C0.253,-0.441 0.232,-0.448 0.207,-0.448C0.198,-0.448 0.187,-0.447 0.176,-0.445L0.176,-0.272C0.209,-0.277 0.236,-0.287 0.257,-0.301C0.284,-0.319 0.297,-0.343 0.297,-0.372Z" style="fill:rgb(36,82,187);fill-rule:nonzero;"/>
                </g>
            </g>
            <g>
                <g transform="matrix(25.0712,0,0,25.7079,170.804,361.146)">
                    <path d="M0.284,0.012C0.428,0.012 0.519,-0.087 0.519,-0.255C0.519,-0.422 0.428,-0.523 0.284,-0.523C0.141,-0.523 0.05,-0.422 0.05,-0.255C0.05,-0.087 0.141,0.012 0.284,0.012ZM0.284,-0.1C0.213,-0.1 0.167,-0.158 0.167,-0.255C0.167,-0.352 0.213,-0.412 0.284,-0.412C0.357,-0.412 0.402,-0.352 0.402,-0.255C0.402,-0.158 0.357,-0.1 0.284,-0.1Z" style="fill:rgb(255,120,125);fill-rule:nonzero;"/>
                </g>
                <g transform="matrix(29.1446,0,0,29.1446,170.189,360.074)">
                    <path d="M0.428,-0.12C0.317,-0.118 0.239,-0.078 0.195,0C0.18,-0.027 0.151,-0.053 0.109,-0.079C0.066,-0.105 0.03,-0.119 0,-0.12C0.016,-0.121 0.029,-0.134 0.04,-0.161C0.049,-0.184 0.054,-0.204 0.054,-0.222L0.054,-0.334C0.054,-0.389 0.036,-0.426 0.001,-0.446C0.046,-0.446 0.089,-0.456 0.132,-0.476C0.178,-0.497 0.211,-0.526 0.232,-0.562C0.246,-0.537 0.275,-0.512 0.318,-0.487C0.361,-0.461 0.398,-0.447 0.427,-0.446C0.391,-0.437 0.373,-0.402 0.373,-0.34L0.373,-0.228C0.373,-0.175 0.391,-0.139 0.428,-0.12ZM0.263,-0.11L0.263,-0.335C0.263,-0.364 0.253,-0.39 0.232,-0.413C0.221,-0.425 0.199,-0.443 0.164,-0.466L0.164,-0.223C0.164,-0.179 0.197,-0.141 0.263,-0.11Z" style="fill:rgb(36,82,187);fill-rule:nonzero;"/>
                </g>
            </g>
            <g>
                <g transform="matrix(25.0712,0,0,25.7079,184.819,361.146)">
                    <path d="M0.675,0L0.792,0L0.792,-0.326C0.792,-0.47 0.711,-0.523 0.605,-0.523C0.539,-0.523 0.485,-0.501 0.451,-0.451C0.424,-0.5 0.378,-0.523 0.317,-0.523C0.264,-0.523 0.221,-0.503 0.192,-0.464L0.192,-0.511L0.075,-0.511L0.075,0L0.192,0L0.192,-0.291C0.192,-0.373 0.23,-0.412 0.288,-0.412C0.348,-0.412 0.375,-0.373 0.375,-0.293L0.375,0L0.492,0L0.492,-0.291C0.492,-0.373 0.529,-0.412 0.588,-0.412C0.648,-0.412 0.675,-0.373 0.675,-0.293L0.675,0Z" style="fill:rgb(255,120,125);fill-rule:nonzero;"/>
                </g>
                <g transform="matrix(29.1446,0,0,29.1446,184.004,360.074)">
                    <path d="M0.648,-0.119C0.622,-0.105 0.601,-0.088 0.585,-0.068C0.576,-0.056 0.561,-0.033 0.542,0C0.523,-0.033 0.508,-0.056 0.499,-0.068C0.483,-0.088 0.462,-0.105 0.436,-0.119C0.459,-0.13 0.474,-0.144 0.481,-0.162C0.486,-0.174 0.488,-0.195 0.488,-0.224L0.488,-0.358C0.488,-0.377 0.484,-0.394 0.475,-0.409C0.465,-0.426 0.451,-0.435 0.433,-0.435C0.415,-0.435 0.401,-0.426 0.391,-0.409C0.382,-0.394 0.378,-0.377 0.378,-0.358L0.378,-0.224C0.378,-0.193 0.38,-0.172 0.385,-0.161C0.392,-0.144 0.407,-0.13 0.431,-0.119C0.405,-0.105 0.384,-0.088 0.367,-0.068C0.358,-0.058 0.344,-0.035 0.324,0C0.304,-0.035 0.29,-0.057 0.281,-0.068C0.264,-0.089 0.243,-0.106 0.218,-0.119C0.241,-0.13 0.256,-0.144 0.263,-0.162C0.268,-0.174 0.27,-0.195 0.27,-0.224L0.27,-0.358C0.27,-0.377 0.266,-0.394 0.257,-0.409C0.247,-0.426 0.233,-0.435 0.215,-0.435C0.197,-0.435 0.183,-0.426 0.173,-0.409C0.164,-0.394 0.16,-0.377 0.16,-0.358L0.16,-0.224C0.16,-0.193 0.162,-0.172 0.167,-0.161C0.174,-0.144 0.189,-0.13 0.213,-0.119C0.187,-0.105 0.166,-0.088 0.149,-0.068C0.14,-0.058 0.126,-0.035 0.106,0C0.097,-0.017 0.082,-0.04 0.063,-0.069C0.046,-0.088 0.025,-0.105 0,-0.119C0.023,-0.13 0.038,-0.144 0.045,-0.162C0.05,-0.175 0.053,-0.195 0.053,-0.224L0.053,-0.358C0.053,-0.375 0.048,-0.392 0.038,-0.409C0.028,-0.425 0.015,-0.437 0,-0.444C0.03,-0.459 0.052,-0.475 0.066,-0.491C0.079,-0.506 0.093,-0.53 0.106,-0.562C0.142,-0.489 0.178,-0.453 0.215,-0.453C0.252,-0.453 0.288,-0.489 0.324,-0.562C0.36,-0.489 0.396,-0.453 0.433,-0.453C0.47,-0.453 0.506,-0.489 0.542,-0.562C0.562,-0.522 0.575,-0.498 0.581,-0.491C0.594,-0.475 0.617,-0.459 0.648,-0.444C0.613,-0.428 0.596,-0.399 0.596,-0.358L0.596,-0.224C0.596,-0.194 0.598,-0.173 0.603,-0.162C0.61,-0.144 0.625,-0.13 0.648,-0.119Z" style="fill:rgb(36,82,187);fill-rule:nonzero;"/>
                </g>
            </g>
            <g>
                <g transform="matrix(25.0712,0,0,25.7079,206.179,361.146)">
                    <path d="M0.386,0L0.503,0L0.503,-0.511L0.386,-0.511L0.386,-0.217C0.386,-0.132 0.345,-0.1 0.283,-0.1C0.223,-0.1 0.187,-0.135 0.187,-0.219L0.187,-0.511L0.07,-0.511L0.07,-0.198C0.07,-0.042 0.155,0.012 0.252,0.012C0.309,0.012 0.354,-0.008 0.386,-0.049L0.386,0Z" style="fill:rgb(255,120,125);fill-rule:nonzero;"/>
                </g>
                <g transform="matrix(29.1446,0,0,29.1446,204.463,360.074)">
                    <path d="M0.431,-0.113C0.4,-0.098 0.379,-0.084 0.366,-0.07C0.353,-0.055 0.339,-0.032 0.324,0C0.288,-0.073 0.252,-0.11 0.215,-0.11C0.178,-0.11 0.142,-0.073 0.106,0C0.089,-0.036 0.075,-0.059 0.066,-0.069C0.053,-0.084 0.031,-0.098 0,-0.113C0.015,-0.121 0.028,-0.134 0.038,-0.152C0.048,-0.169 0.053,-0.187 0.053,-0.205L0.053,-0.339C0.053,-0.368 0.05,-0.388 0.045,-0.399C0.038,-0.414 0.023,-0.427 0,-0.438C0.048,-0.465 0.084,-0.506 0.107,-0.562C0.13,-0.505 0.165,-0.464 0.213,-0.438C0.19,-0.427 0.175,-0.414 0.168,-0.399C0.163,-0.388 0.16,-0.368 0.16,-0.339L0.16,-0.205C0.16,-0.188 0.165,-0.172 0.175,-0.159C0.185,-0.146 0.198,-0.139 0.215,-0.139C0.232,-0.139 0.245,-0.145 0.255,-0.158C0.265,-0.171 0.27,-0.186 0.27,-0.205L0.27,-0.339C0.27,-0.369 0.268,-0.389 0.263,-0.399C0.256,-0.414 0.241,-0.427 0.218,-0.438C0.266,-0.465 0.301,-0.506 0.324,-0.562C0.347,-0.505 0.382,-0.464 0.431,-0.438C0.408,-0.427 0.393,-0.414 0.386,-0.399C0.381,-0.388 0.378,-0.368 0.378,-0.339L0.378,-0.205C0.378,-0.187 0.383,-0.169 0.393,-0.152C0.403,-0.134 0.416,-0.121 0.431,-0.113Z" style="fill:rgb(36,82,187);fill-rule:nonzero;"/>
                </g>
            </g>
        </g>
    </g>
</svg>
