<?xml version="1.0" encoding="UTF-8" standalone="no"?>
<!DOCTYPE svg PUBLIC "-//W3C//DTD SVG 1.1//EN" "http://www.w3.org/Graphics/SVG/1.1/DTD/svg11.dtd">
<svg width="100%" height="100%" viewBox="0 0 24 110" version="1.1" xmlns="http://www.w3.org/2000/svg" xmlns:xlink="http://www.w3.org/1999/xlink" xml:space="preserve" xmlns:serif="http://www.serif.com/" style="fill-rule:evenodd;clip-rule:evenodd;stroke-linejoin:round;stroke-miterlimit:2;">
    <g transform="matrix(1,0,0,1,-3.25222,-2.52612)">
        <g transform="matrix(0.0475713,0,0,0.200807,0,0)">
            <g transform="matrix(1.28717e-15,-4.97991,21.0211,3.04932e-16,-4573.01,1386.62)">
                <g transform="matrix(0.782146,0,0,0.782146,41.3393,53.5327)">
                    <g transform="matrix(24,0,0,24,166.79,239.997)">
                        <path d="M0.31,-0.519L0.31,-0.409L0.216,-0.409L0.216,-0.2C0.216,-0.158 0.217,-0.133 0.219,-0.126C0.22,-0.119 0.224,-0.113 0.231,-0.109C0.237,-0.104 0.245,-0.102 0.254,-0.102C0.267,-0.102 0.285,-0.106 0.309,-0.115L0.321,-0.009C0.289,0.005 0.253,0.012 0.212,0.012C0.188,0.012 0.165,0.008 0.146,-0.001C0.126,-0.009 0.111,-0.02 0.102,-0.033C0.093,-0.046 0.086,-0.064 0.083,-0.086C0.08,-0.102 0.078,-0.135 0.078,-0.183L0.078,-0.409L0.015,-0.409L0.015,-0.519L0.078,-0.519L0.078,-0.622L0.216,-0.702L0.216,-0.519L0.31,-0.519Z" style="fill:rgb(255,120,124);fill-rule:nonzero;"/>
                    </g>
                    <g transform="matrix(24,0,0,24,174.783,239.997)">
                        <path d="M0.372,-0.165L0.509,-0.142C0.491,-0.092 0.463,-0.054 0.426,-0.028C0.388,-0.001 0.34,0.012 0.283,0.012C0.193,0.012 0.126,-0.018 0.083,-0.077C0.049,-0.124 0.032,-0.183 0.032,-0.255C0.032,-0.341 0.054,-0.409 0.099,-0.457C0.144,-0.506 0.201,-0.53 0.27,-0.53C0.347,-0.53 0.408,-0.505 0.452,-0.454C0.497,-0.403 0.518,-0.325 0.516,-0.22L0.172,-0.22C0.173,-0.179 0.184,-0.147 0.206,-0.125C0.227,-0.102 0.253,-0.091 0.285,-0.091C0.306,-0.091 0.324,-0.097 0.339,-0.108C0.354,-0.12 0.365,-0.139 0.372,-0.165ZM0.38,-0.304C0.379,-0.343 0.369,-0.374 0.349,-0.394C0.33,-0.415 0.306,-0.425 0.278,-0.425C0.248,-0.425 0.223,-0.414 0.204,-0.393C0.184,-0.371 0.174,-0.341 0.175,-0.304L0.38,-0.304Z" style="fill:rgb(255,120,124);fill-rule:nonzero;"/>
                    </g>
                    <g transform="matrix(24,0,0,24,188.13,239.997)">
                        <path d="M0.524,-0.365L0.389,-0.341C0.384,-0.368 0.374,-0.388 0.358,-0.402C0.342,-0.416 0.321,-0.422 0.295,-0.422C0.261,-0.422 0.233,-0.411 0.213,-0.387C0.193,-0.363 0.183,-0.324 0.183,-0.269C0.183,-0.207 0.193,-0.164 0.214,-0.138C0.234,-0.113 0.262,-0.1 0.297,-0.1C0.323,-0.1 0.344,-0.108 0.361,-0.122C0.377,-0.137 0.389,-0.163 0.396,-0.199L0.531,-0.176C0.517,-0.114 0.49,-0.067 0.45,-0.036C0.41,-0.004 0.357,0.012 0.291,0.012C0.215,0.012 0.154,-0.012 0.109,-0.06C0.064,-0.108 0.042,-0.174 0.042,-0.259C0.042,-0.344 0.064,-0.411 0.109,-0.459C0.155,-0.506 0.216,-0.53 0.293,-0.53C0.356,-0.53 0.406,-0.517 0.444,-0.49C0.481,-0.462 0.508,-0.421 0.524,-0.365Z" style="fill:rgb(255,120,124);fill-rule:nonzero;"/>
                    </g>
                    <g transform="matrix(24,0,0,24,201.478,239.997)">
                        <path d="M0.208,-0.716L0.208,-0.453C0.253,-0.504 0.306,-0.53 0.367,-0.53C0.399,-0.53 0.427,-0.524 0.453,-0.513C0.478,-0.501 0.497,-0.486 0.51,-0.468C0.523,-0.45 0.532,-0.429 0.536,-0.407C0.541,-0.385 0.543,-0.351 0.543,-0.304L0.543,-0L0.406,-0L0.406,-0.274C0.406,-0.328 0.404,-0.363 0.398,-0.377C0.393,-0.392 0.384,-0.404 0.371,-0.412C0.358,-0.421 0.341,-0.425 0.321,-0.425C0.299,-0.425 0.278,-0.42 0.26,-0.409C0.242,-0.398 0.229,-0.381 0.221,-0.359C0.213,-0.336 0.208,-0.303 0.208,-0.26L0.208,-0L0.071,-0L0.071,-0.716L0.208,-0.716Z" style="fill:rgb(255,120,124);fill-rule:nonzero;"/>
                    </g>
                    <g transform="matrix(24,0,0,24,216.138,239.997)">
                        <path d="M0.543,-0L0.406,-0L0.406,-0.265C0.406,-0.321 0.403,-0.357 0.397,-0.373C0.392,-0.39 0.382,-0.403 0.369,-0.412C0.356,-0.421 0.34,-0.425 0.321,-0.425C0.298,-0.425 0.276,-0.419 0.257,-0.406C0.238,-0.393 0.226,-0.375 0.219,-0.354C0.212,-0.333 0.208,-0.293 0.208,-0.235L0.208,-0L0.071,-0L0.071,-0.519L0.198,-0.519L0.198,-0.442C0.243,-0.501 0.3,-0.53 0.369,-0.53C0.399,-0.53 0.427,-0.525 0.452,-0.514C0.477,-0.503 0.496,-0.489 0.509,-0.472C0.522,-0.455 0.531,-0.436 0.536,-0.415C0.541,-0.393 0.543,-0.362 0.543,-0.322L0.543,-0Z" style="fill:rgb(255,120,124);fill-rule:nonzero;"/>
                    </g>
                    <g transform="matrix(24,0,0,24,230.798,239.997)">
                        <path d="M0.072,-0.589L0.072,-0.716L0.209,-0.716L0.209,-0.589L0.072,-0.589ZM0.072,-0L0.072,-0.519L0.209,-0.519L0.209,-0L0.072,-0Z" style="fill:rgb(255,120,124);fill-rule:nonzero;"/>
                    </g>
                    <g transform="matrix(24,0,0,24,237.466,239.997)">
                        <path d="M0.168,-0L0.004,-0.519L0.138,-0.519L0.235,-0.179L0.324,-0.519L0.457,-0.519L0.543,-0.179L0.642,-0.519L0.777,-0.519L0.611,-0L0.479,-0L0.39,-0.333L0.302,-0L0.168,-0Z" style="fill:rgb(255,120,124);fill-rule:nonzero;"/>
                    </g>
                    <g transform="matrix(24,0,0,24,256.134,239.997)">
                        <path d="M0.04,-0.267C0.04,-0.312 0.051,-0.356 0.074,-0.399C0.096,-0.442 0.128,-0.474 0.169,-0.497C0.21,-0.519 0.256,-0.53 0.307,-0.53C0.386,-0.53 0.45,-0.505 0.5,-0.454C0.55,-0.403 0.575,-0.339 0.575,-0.261C0.575,-0.182 0.55,-0.117 0.499,-0.066C0.449,-0.014 0.385,0.012 0.308,0.012C0.261,0.012 0.215,0.001 0.172,-0.021C0.129,-0.042 0.096,-0.073 0.074,-0.115C0.051,-0.156 0.04,-0.207 0.04,-0.267ZM0.181,-0.259C0.181,-0.208 0.193,-0.168 0.217,-0.141C0.242,-0.114 0.272,-0.1 0.308,-0.1C0.343,-0.1 0.373,-0.114 0.398,-0.141C0.422,-0.168 0.434,-0.208 0.434,-0.26C0.434,-0.311 0.422,-0.35 0.398,-0.377C0.373,-0.405 0.343,-0.418 0.308,-0.418C0.272,-0.418 0.242,-0.405 0.217,-0.377C0.193,-0.35 0.181,-0.311 0.181,-0.259Z" style="fill:rgb(255,120,124);fill-rule:nonzero;"/>
                    </g>
                    <g transform="matrix(24,0,0,24,270.794,239.997)">
                        <path d="M0.203,-0L0.066,-0L0.066,-0.519L0.193,-0.519L0.193,-0.445C0.215,-0.48 0.235,-0.503 0.252,-0.514C0.27,-0.525 0.289,-0.53 0.312,-0.53C0.343,-0.53 0.373,-0.522 0.402,-0.504L0.359,-0.385C0.336,-0.4 0.315,-0.407 0.295,-0.407C0.276,-0.407 0.259,-0.402 0.246,-0.391C0.233,-0.381 0.222,-0.362 0.215,-0.334C0.207,-0.306 0.203,-0.248 0.203,-0.16L0.203,-0Z" style="fill:rgb(255,120,124);fill-rule:nonzero;"/>
                    </g>
                    <g transform="matrix(24,0,0,24,280.134,239.997)">
                        <path d="M0.062,-0.519L0.188,-0.519L0.188,-0.448C0.233,-0.503 0.287,-0.53 0.35,-0.53C0.383,-0.53 0.412,-0.523 0.436,-0.51C0.46,-0.496 0.48,-0.475 0.496,-0.448C0.519,-0.475 0.543,-0.496 0.57,-0.51C0.596,-0.523 0.624,-0.53 0.654,-0.53C0.692,-0.53 0.725,-0.523 0.751,-0.507C0.777,-0.492 0.797,-0.469 0.81,-0.439C0.819,-0.417 0.824,-0.381 0.824,-0.332L0.824,-0L0.687,-0L0.687,-0.296C0.687,-0.348 0.682,-0.381 0.673,-0.396C0.66,-0.416 0.641,-0.425 0.614,-0.425C0.595,-0.425 0.577,-0.419 0.56,-0.408C0.543,-0.396 0.531,-0.379 0.523,-0.356C0.516,-0.334 0.512,-0.298 0.512,-0.249L0.512,-0L0.375,-0L0.375,-0.284C0.375,-0.335 0.373,-0.367 0.368,-0.382C0.363,-0.396 0.355,-0.407 0.345,-0.415C0.335,-0.422 0.321,-0.425 0.303,-0.425C0.282,-0.425 0.263,-0.42 0.246,-0.408C0.229,-0.397 0.217,-0.38 0.21,-0.359C0.202,-0.337 0.199,-0.302 0.199,-0.252L0.199,-0L0.062,-0L0.062,-0.519Z" style="fill:rgb(255,120,124);fill-rule:nonzero;"/>
                    </g>
                </g>
                <g transform="matrix(24,0,0,24,166.79,239.997)">
                    <path d="M0.272,-0.36L0.25,-0.36L0.25,-0.378C0.251,-0.383 0.251,-0.389 0.251,-0.396C0.251,-0.42 0.247,-0.436 0.238,-0.444C0.229,-0.452 0.211,-0.456 0.186,-0.456L0.186,-0.229C0.186,-0.167 0.205,-0.127 0.243,-0.109C0.212,-0.092 0.189,-0.077 0.176,-0.065C0.161,-0.05 0.145,-0.029 0.129,-0C0.111,-0.031 0.095,-0.053 0.082,-0.066C0.073,-0.075 0.05,-0.09 0.014,-0.109C0.037,-0.12 0.052,-0.136 0.06,-0.159C0.065,-0.174 0.068,-0.198 0.068,-0.229L0.068,-0.456L0,-0.456L0,-0.501L0.068,-0.501L0.068,-0.605C0.068,-0.623 0.059,-0.64 0.04,-0.656C0.038,-0.658 0.028,-0.666 0.009,-0.681L0.01,-0.682C0.026,-0.684 0.049,-0.689 0.078,-0.697C0.093,-0.702 0.124,-0.722 0.169,-0.755C0.204,-0.78 0.237,-0.795 0.27,-0.8L0.269,-0.787C0.214,-0.77 0.186,-0.709 0.186,-0.606L0.186,-0.501C0.217,-0.501 0.236,-0.505 0.243,-0.514C0.248,-0.52 0.25,-0.539 0.25,-0.572L0.272,-0.572L0.272,-0.36Z" style="fill:rgb(36,82,187);fill-rule:nonzero;"/>
                </g>
                <g transform="matrix(24,0,0,24,173.942,239.997)">
                    <path d="M0.371,-0.119C0.337,-0.116 0.304,-0.103 0.271,-0.08C0.238,-0.057 0.212,-0.031 0.195,-0C0.178,-0.029 0.151,-0.055 0.112,-0.078C0.077,-0.099 0.041,-0.112 0.004,-0.119C0.042,-0.136 0.061,-0.165 0.061,-0.205L0.061,-0.333C0.061,-0.385 0.041,-0.422 0,-0.445C0.052,-0.445 0.1,-0.454 0.145,-0.473C0.194,-0.494 0.233,-0.524 0.26,-0.563C0.276,-0.532 0.291,-0.509 0.304,-0.493C0.321,-0.474 0.343,-0.458 0.371,-0.445C0.354,-0.43 0.342,-0.406 0.333,-0.372C0.324,-0.335 0.313,-0.309 0.301,-0.296C0.278,-0.269 0.236,-0.248 0.176,-0.233L0.175,-0.216C0.172,-0.171 0.195,-0.142 0.244,-0.128C0.269,-0.121 0.311,-0.118 0.371,-0.119ZM0.263,-0.341C0.263,-0.36 0.253,-0.384 0.233,-0.412C0.213,-0.439 0.194,-0.453 0.176,-0.453L0.176,-0.256C0.199,-0.261 0.219,-0.27 0.237,-0.285C0.254,-0.3 0.263,-0.318 0.263,-0.341Z" style="fill:rgb(36,82,187);fill-rule:nonzero;"/>
                </g>
                <g transform="matrix(24,0,0,24,183.134,239.997)">
                    <path d="M0.371,-0.119C0.347,-0.118 0.316,-0.103 0.277,-0.073C0.26,-0.06 0.232,-0.035 0.195,-0C0.182,-0.023 0.153,-0.048 0.108,-0.076C0.063,-0.103 0.027,-0.118 0.001,-0.119C0.02,-0.12 0.035,-0.133 0.046,-0.158C0.056,-0.179 0.061,-0.2 0.061,-0.221L0.061,-0.333C0.061,-0.384 0.041,-0.421 0,-0.444C0.121,-0.444 0.207,-0.483 0.26,-0.562C0.277,-0.529 0.292,-0.506 0.304,-0.492C0.319,-0.474 0.342,-0.458 0.371,-0.444C0.347,-0.433 0.326,-0.405 0.308,-0.359C0.295,-0.326 0.285,-0.29 0.28,-0.252L0.278,-0.252C0.273,-0.297 0.264,-0.337 0.251,-0.372C0.23,-0.427 0.205,-0.454 0.176,-0.452L0.176,-0.229C0.176,-0.156 0.241,-0.119 0.371,-0.119Z" style="fill:rgb(36,82,187);fill-rule:nonzero;"/>
                </g>
                <g transform="matrix(24,0,0,24,192.302,239.997)">
                    <path d="M0.451,-0.118C0.422,-0.103 0.402,-0.073 0.393,-0.028C0.381,0.029 0.369,0.067 0.356,0.087C0.329,0.13 0.278,0.161 0.203,0.18L0.203,0.164C0.253,0.149 0.278,0.107 0.278,0.037L0.278,-0.382C0.278,-0.406 0.261,-0.422 0.228,-0.43C0.216,-0.433 0.201,-0.434 0.183,-0.434L0.171,-0.434L0.171,-0.224C0.171,-0.195 0.174,-0.173 0.18,-0.16C0.188,-0.143 0.204,-0.129 0.227,-0.118C0.202,-0.104 0.179,-0.086 0.16,-0.065C0.148,-0.052 0.132,-0.028 0.113,0.006C0.096,-0.025 0.08,-0.048 0.065,-0.065C0.048,-0.086 0.025,-0.103 -0.003,-0.118C0.021,-0.129 0.036,-0.143 0.043,-0.16C0.048,-0.173 0.051,-0.195 0.051,-0.224L0.051,-0.339C0.051,-0.395 0.032,-0.434 -0.005,-0.455C0.021,-0.472 0.037,-0.489 0.044,-0.505C0.049,-0.518 0.052,-0.542 0.052,-0.575C0.052,-0.632 0.032,-0.668 -0.007,-0.684C0.004,-0.683 0.012,-0.682 0.017,-0.682C0.048,-0.682 0.09,-0.701 0.143,-0.74C0.196,-0.779 0.237,-0.798 0.266,-0.798C0.294,-0.798 0.318,-0.791 0.339,-0.776C0.362,-0.759 0.374,-0.738 0.374,-0.711C0.374,-0.692 0.368,-0.677 0.357,-0.665C0.345,-0.652 0.33,-0.646 0.311,-0.646C0.274,-0.646 0.256,-0.663 0.256,-0.697C0.256,-0.71 0.26,-0.722 0.269,-0.731C0.278,-0.74 0.289,-0.745 0.302,-0.745C0.328,-0.745 0.342,-0.729 0.345,-0.697C0.346,-0.704 0.347,-0.708 0.347,-0.711C0.347,-0.728 0.34,-0.741 0.327,-0.753C0.314,-0.764 0.298,-0.769 0.28,-0.769C0.241,-0.769 0.213,-0.75 0.194,-0.711C0.179,-0.68 0.171,-0.644 0.171,-0.603L0.171,-0.463C0.215,-0.463 0.25,-0.472 0.275,-0.49C0.297,-0.506 0.318,-0.535 0.338,-0.577C0.353,-0.543 0.368,-0.518 0.381,-0.503C0.398,-0.484 0.421,-0.468 0.451,-0.455C0.414,-0.437 0.396,-0.407 0.396,-0.365L0.396,-0.226C0.396,-0.191 0.414,-0.155 0.451,-0.118Z" style="fill:rgb(36,82,187);fill-rule:nonzero;"/>
                </g>
                <g transform="matrix(24,0,0,24,203.75,239.997)">
                    <path d="M0.431,-0.119C0.404,-0.104 0.382,-0.088 0.367,-0.069C0.36,-0.06 0.345,-0.037 0.324,-0C0.304,-0.035 0.29,-0.057 0.281,-0.068C0.264,-0.089 0.243,-0.106 0.218,-0.119C0.241,-0.13 0.256,-0.144 0.263,-0.162C0.268,-0.174 0.27,-0.195 0.27,-0.224L0.27,-0.358C0.27,-0.377 0.266,-0.394 0.257,-0.409C0.247,-0.426 0.233,-0.435 0.215,-0.435C0.197,-0.435 0.183,-0.426 0.173,-0.409C0.164,-0.394 0.16,-0.377 0.16,-0.358L0.16,-0.224C0.16,-0.195 0.163,-0.175 0.168,-0.162C0.175,-0.144 0.19,-0.13 0.213,-0.119C0.187,-0.105 0.166,-0.088 0.149,-0.068C0.14,-0.058 0.126,-0.035 0.106,-0C0.097,-0.017 0.082,-0.04 0.063,-0.069C0.046,-0.088 0.025,-0.105 0,-0.119C0.023,-0.13 0.038,-0.144 0.045,-0.162C0.05,-0.175 0.053,-0.195 0.053,-0.224L0.053,-0.358C0.053,-0.398 0.035,-0.427 0,-0.445C0.029,-0.46 0.051,-0.476 0.065,-0.493C0.076,-0.506 0.09,-0.529 0.106,-0.562C0.142,-0.489 0.178,-0.453 0.215,-0.453C0.252,-0.453 0.288,-0.489 0.324,-0.562C0.343,-0.525 0.357,-0.501 0.365,-0.492C0.378,-0.477 0.4,-0.461 0.431,-0.445C0.396,-0.428 0.378,-0.399 0.378,-0.358L0.378,-0.224C0.378,-0.197 0.381,-0.176 0.386,-0.162C0.393,-0.145 0.408,-0.13 0.431,-0.119Z" style="fill:rgb(36,82,187);fill-rule:nonzero;"/>
                </g>
                <g transform="matrix(24,0,0,24,214.67,239.997)">
                    <path d="M0.213,-0.681C0.166,-0.66 0.13,-0.622 0.107,-0.569C0.085,-0.625 0.05,-0.662 0.001,-0.681C0.053,-0.706 0.088,-0.745 0.107,-0.8C0.13,-0.741 0.166,-0.701 0.213,-0.681ZM0.213,-0.119C0.187,-0.105 0.166,-0.088 0.15,-0.068C0.141,-0.056 0.126,-0.033 0.107,-0C0.087,-0.035 0.073,-0.057 0.064,-0.068C0.047,-0.089 0.026,-0.106 0.001,-0.119C0.024,-0.13 0.039,-0.144 0.046,-0.161C0.051,-0.173 0.053,-0.194 0.053,-0.224L0.053,-0.357C0.053,-0.4 0.035,-0.429 0,-0.444C0.023,-0.444 0.046,-0.458 0.068,-0.487C0.085,-0.509 0.098,-0.534 0.107,-0.562C0.116,-0.537 0.129,-0.513 0.148,-0.489C0.171,-0.46 0.192,-0.445 0.213,-0.444C0.178,-0.428 0.161,-0.399 0.161,-0.357L0.161,-0.224C0.161,-0.193 0.163,-0.172 0.168,-0.161C0.175,-0.144 0.19,-0.13 0.213,-0.119Z" style="fill:rgb(36,82,187);fill-rule:nonzero;"/>
                </g>
                <g transform="matrix(24,0,0,24,220.262,239.997)">
                    <path d="M0.635,-0.107C0.588,-0.107 0.549,-0.098 0.518,-0.08C0.498,-0.069 0.468,-0.042 0.427,-0C0.378,-0.067 0.329,-0.101 0.281,-0.101C0.254,-0.101 0.231,-0.091 0.212,-0.072C0.193,-0.052 0.179,-0.028 0.172,-0C0.155,-0.03 0.13,-0.055 0.098,-0.076C0.065,-0.097 0.033,-0.107 0,-0.107C0.015,-0.114 0.028,-0.127 0.038,-0.145C0.048,-0.163 0.053,-0.181 0.053,-0.2L0.053,-0.335C0.053,-0.365 0.051,-0.385 0.046,-0.396C0.039,-0.412 0.024,-0.426 0,-0.437C0.029,-0.452 0.051,-0.469 0.067,-0.489C0.076,-0.5 0.09,-0.525 0.108,-0.562C0.147,-0.494 0.183,-0.46 0.216,-0.46C0.249,-0.46 0.285,-0.494 0.324,-0.562C0.336,-0.532 0.35,-0.507 0.365,-0.489C0.38,-0.47 0.403,-0.452 0.432,-0.437C0.408,-0.426 0.393,-0.412 0.386,-0.396C0.381,-0.385 0.379,-0.365 0.379,-0.335L0.379,-0.2C0.387,-0.18 0.408,-0.161 0.443,-0.144C0.475,-0.127 0.503,-0.119 0.526,-0.119L0.526,-0.347C0.526,-0.369 0.519,-0.388 0.505,-0.405C0.49,-0.421 0.472,-0.432 0.449,-0.437C0.475,-0.451 0.495,-0.468 0.509,-0.489C0.52,-0.506 0.532,-0.53 0.544,-0.562C0.561,-0.501 0.592,-0.46 0.635,-0.437C0.607,-0.432 0.588,-0.424 0.578,-0.411C0.568,-0.398 0.563,-0.377 0.563,-0.347L0.563,-0.2C0.563,-0.149 0.587,-0.118 0.635,-0.107ZM0.263,-0.107L0.263,-0.335C0.263,-0.358 0.26,-0.378 0.254,-0.395C0.245,-0.42 0.232,-0.432 0.215,-0.432C0.196,-0.432 0.183,-0.42 0.174,-0.395C0.167,-0.375 0.163,-0.355 0.163,-0.335L0.163,-0.184C0.163,-0.169 0.176,-0.152 0.202,-0.134C0.226,-0.117 0.246,-0.108 0.263,-0.107Z" style="fill:rgb(36,82,187);fill-rule:nonzero;"/>
                </g>
                <g transform="matrix(24,0,0,24,236.054,239.997)">
                    <path d="M0.428,-0.12C0.317,-0.118 0.239,-0.078 0.195,-0C0.18,-0.027 0.151,-0.053 0.109,-0.079C0.066,-0.105 0.03,-0.119 0,-0.12C0.016,-0.121 0.029,-0.134 0.04,-0.161C0.049,-0.184 0.054,-0.204 0.054,-0.222L0.054,-0.334C0.054,-0.389 0.036,-0.426 0.001,-0.446C0.046,-0.446 0.089,-0.456 0.132,-0.476C0.178,-0.497 0.211,-0.526 0.232,-0.562C0.246,-0.537 0.275,-0.512 0.318,-0.487C0.361,-0.461 0.398,-0.447 0.427,-0.446C0.391,-0.437 0.373,-0.402 0.373,-0.34L0.373,-0.228C0.373,-0.175 0.391,-0.139 0.428,-0.12ZM0.263,-0.11L0.263,-0.335C0.263,-0.364 0.253,-0.39 0.232,-0.413C0.221,-0.425 0.199,-0.443 0.164,-0.466L0.164,-0.223C0.164,-0.179 0.197,-0.141 0.263,-0.11Z" style="fill:rgb(36,82,187);fill-rule:nonzero;"/>
                </g>
                <g transform="matrix(24,0,0,24,246.71,239.997)">
                    <path d="M0.389,-0.437C0.365,-0.426 0.345,-0.399 0.328,-0.354C0.316,-0.322 0.307,-0.287 0.302,-0.249L0.301,-0.249C0.299,-0.28 0.29,-0.314 0.274,-0.353C0.254,-0.401 0.232,-0.425 0.209,-0.425C0.189,-0.425 0.179,-0.409 0.179,-0.376L0.179,-0.173C0.209,-0.139 0.238,-0.119 0.265,-0.112C0.279,-0.109 0.314,-0.107 0.371,-0.107C0.334,-0.095 0.302,-0.081 0.277,-0.065C0.257,-0.052 0.231,-0.031 0.198,-0C0.183,-0.027 0.155,-0.051 0.113,-0.074C0.07,-0.096 0.033,-0.107 0.001,-0.107C0.016,-0.108 0.031,-0.123 0.044,-0.152C0.056,-0.178 0.062,-0.2 0.062,-0.218L0.062,-0.331C0.062,-0.378 0.041,-0.414 0,-0.437C0.043,-0.437 0.082,-0.479 0.115,-0.562C0.141,-0.493 0.171,-0.459 0.205,-0.459C0.239,-0.459 0.27,-0.493 0.299,-0.562L0.331,-0.489C0.344,-0.466 0.364,-0.448 0.389,-0.437Z" style="fill:rgb(36,82,187);fill-rule:nonzero;"/>
                </g>
                <g transform="matrix(24,0,0,24,256.286,239.997)">
                    <path d="M0.648,-0.119C0.622,-0.105 0.601,-0.088 0.585,-0.068C0.576,-0.056 0.561,-0.033 0.542,-0C0.523,-0.033 0.508,-0.056 0.499,-0.068C0.483,-0.088 0.462,-0.105 0.436,-0.119C0.459,-0.13 0.474,-0.144 0.481,-0.162C0.486,-0.174 0.488,-0.195 0.488,-0.224L0.488,-0.358C0.488,-0.377 0.484,-0.394 0.475,-0.409C0.465,-0.426 0.451,-0.435 0.433,-0.435C0.415,-0.435 0.401,-0.426 0.391,-0.409C0.382,-0.394 0.378,-0.377 0.378,-0.358L0.378,-0.224C0.378,-0.193 0.38,-0.172 0.385,-0.161C0.392,-0.144 0.407,-0.13 0.431,-0.119C0.405,-0.105 0.384,-0.088 0.367,-0.068C0.358,-0.058 0.344,-0.035 0.324,-0C0.304,-0.035 0.29,-0.057 0.281,-0.068C0.264,-0.089 0.243,-0.106 0.218,-0.119C0.241,-0.13 0.256,-0.144 0.263,-0.162C0.268,-0.174 0.27,-0.195 0.27,-0.224L0.27,-0.358C0.27,-0.377 0.266,-0.394 0.257,-0.409C0.247,-0.426 0.233,-0.435 0.215,-0.435C0.197,-0.435 0.183,-0.426 0.173,-0.409C0.164,-0.394 0.16,-0.377 0.16,-0.358L0.16,-0.224C0.16,-0.193 0.162,-0.172 0.167,-0.161C0.174,-0.144 0.189,-0.13 0.213,-0.119C0.187,-0.105 0.166,-0.088 0.149,-0.068C0.14,-0.058 0.126,-0.035 0.106,-0C0.097,-0.017 0.082,-0.04 0.063,-0.069C0.046,-0.088 0.025,-0.105 0,-0.119C0.023,-0.13 0.038,-0.144 0.045,-0.162C0.05,-0.175 0.053,-0.195 0.053,-0.224L0.053,-0.358C0.053,-0.375 0.048,-0.392 0.038,-0.409C0.028,-0.425 0.015,-0.437 0,-0.444C0.03,-0.459 0.052,-0.475 0.066,-0.491C0.079,-0.506 0.093,-0.53 0.106,-0.562C0.142,-0.489 0.178,-0.453 0.215,-0.453C0.252,-0.453 0.288,-0.489 0.324,-0.562C0.36,-0.489 0.396,-0.453 0.433,-0.453C0.47,-0.453 0.506,-0.489 0.542,-0.562C0.562,-0.522 0.575,-0.498 0.581,-0.491C0.594,-0.475 0.617,-0.459 0.648,-0.444C0.613,-0.428 0.596,-0.399 0.596,-0.358L0.596,-0.224C0.596,-0.194 0.598,-0.173 0.603,-0.162C0.61,-0.144 0.625,-0.13 0.648,-0.119Z" style="fill:rgb(36,82,187);fill-rule:nonzero;"/>
                </g>
            </g>
        </g>
    </g>
</svg>
