<?xml version="1.0" encoding="UTF-8" standalone="no"?><!DOCTYPE svg PUBLIC "-//W3C//DTD SVG 1.1//EN" "http://www.w3.org/Graphics/SVG/1.1/DTD/svg11.dtd"><svg width="100%" height="100%" viewBox="0 0 236 50" version="1.1" xmlns="http://www.w3.org/2000/svg" xmlns:xlink="http://www.w3.org/1999/xlink" xml:space="preserve" xmlns:serif="http://www.serif.com/" style="fill-rule:evenodd;clip-rule:evenodd;stroke-linejoin:round;stroke-miterlimit:2;"><g><path d="M18.061,49.451c5.917,0 9.828,-2.725 9.828,-7.816c0,-4.987 -3.46,-7.146 -8.424,-8.843c-2.707,-0.926 -5.014,-1.851 -5.014,-3.445c0,-1.388 1.354,-2.159 3.46,-2.159c2.357,0 3.861,0.976 5.115,2.21l4.061,-3.393c-1.755,-2.108 -4.763,-4.062 -9.176,-4.062c-5.064,0 -9.126,2.571 -9.126,7.301c0,4.422 2.908,6.633 8.474,8.535c2.908,1.183 4.964,2.005 4.964,3.856c0,1.903 -1.755,2.571 -4.162,2.571c-2.808,0 -4.914,-1.697 -5.967,-2.776l-4.011,3.496c1.906,2.776 5.867,4.525 9.978,4.525Z" style="fill:#ff787d;fill-rule:nonzero;"/><path d="M49.501,48.834l5.866,0l0,-16.145c0,-8.021 -4.212,-10.746 -9.075,-10.746c-2.909,0 -5.115,1.028 -6.77,3.085l0,-2.468l-5.866,0l0,26.274l5.866,0l0,-15.168c0,-4.319 2.056,-6.016 5.215,-6.016c2.959,0 4.764,1.8 4.764,6.119l0,15.065Z" style="fill:#ff787d;fill-rule:nonzero;"/><path d="M76.728,48.834l5.716,0l0,-16.916c0,-8.844 -5.616,-9.975 -10.129,-9.975c-4.312,0 -7.722,1.285 -10.028,2.879l1.805,4.885c2.156,-1.543 4.513,-2.468 7.622,-2.468c3.359,0 5.014,1.337 5.014,4.782l0,1.388c-1.605,-0.926 -3.66,-1.388 -6.067,-1.388c-5.065,0 -10.029,2.622 -10.029,8.689c0,5.758 4.012,8.741 9.277,8.741c3.409,0 5.565,-1.389 6.819,-2.725l0,2.108Zm-5.716,-4.679c-3.059,0 -4.664,-1.388 -4.664,-3.445c0,-2.519 2.357,-3.548 5.265,-3.548c1.906,0 3.761,0.412 5.115,1.08l0,3.393c-1.304,1.389 -3.209,2.52 -5.716,2.52Z" style="fill:#ff787d;fill-rule:nonzero;"/><path d="M99.543,49.451c4.111,0 7.12,-1.646 9.126,-4.114l-3.711,-3.907c-1.354,1.851 -3.159,2.725 -5.415,2.725c-3.059,0 -5.817,-2.314 -6.017,-6.17l16.998,0c0.15,-1.183 0.2,-2.622 0.2,-3.702c0,-8.432 -5.014,-12.34 -11.181,-12.34c-7.171,0 -11.834,5.142 -11.834,13.728c0,8.638 4.563,13.78 11.834,13.78Zm-5.967,-16.453c0.301,-4.114 2.808,-5.759 5.967,-5.759c2.657,0 5.114,1.748 5.365,5.759l-11.332,0Z" style="fill:#ff787d;fill-rule:nonzero;"/><path d="M138.704,48.834l-9.527,-18.819l7.27,-7.455l-7.12,0l-7.22,7.61l0,-18.459l-5.867,2.828l0,34.295l5.867,0l0,-11.62l2.858,-2.88l7.321,14.5l6.418,0Z" style="fill:#ff787d;fill-rule:nonzero;"/><path d="M153.557,49.451c7.221,0 11.784,-5.091 11.784,-13.728c0,-8.587 -4.563,-13.78 -11.784,-13.78c-7.17,0 -11.733,5.193 -11.733,13.78c0,8.637 4.563,13.728 11.733,13.728Zm0,-5.759c-3.56,0 -5.866,-2.982 -5.866,-7.969c0,-4.988 2.306,-8.073 5.866,-8.073c3.661,0 5.917,3.085 5.917,8.073c0,4.987 -2.256,7.969 -5.917,7.969Z" style="fill:#ff787d;fill-rule:nonzero;"/><path d="M201.193,48.834l5.866,0l0,-16.762c0,-7.404 -4.061,-10.129 -9.376,-10.129c-3.31,0 -6.017,1.131 -7.722,3.702c-1.354,-2.519 -3.661,-3.702 -6.719,-3.702c-2.658,0 -4.814,1.028 -6.268,3.034l0,-2.417l-5.867,0l0,26.274l5.867,0l0,-14.962c0,-4.217 1.905,-6.222 4.813,-6.222c3.009,0 4.363,2.005 4.363,6.119l0,15.065l5.867,0l0,-14.962c0,-4.217 1.855,-6.222 4.813,-6.222c3.009,0 4.363,2.005 4.363,6.119l0,15.065Z" style="fill:#ff787d;fill-rule:nonzero;"/><path d="M229.423,48.834l5.866,0l0,-26.274l-5.866,0l0,15.116c0,4.371 -2.056,6.016 -5.165,6.016c-3.009,0 -4.814,-1.8 -4.814,-6.118l0,-15.014l-5.866,0l0,16.093c0,8.021 4.262,10.798 9.126,10.798c2.858,0 5.114,-1.029 6.719,-3.137l0,2.52Z" style="fill:#ff787d;fill-rule:nonzero;"/></g><g><path d="M25.356,40.453c-6.451,0 -11.425,2.079 -14.922,6.237c-1.943,-2.293 -3.906,-3.439 -5.887,-3.439c-1.905,0 -3.303,1.146 -4.197,3.439l-0.35,0c0.194,-2.798 0.835,-4.8 1.924,-6.004c0.582,-0.622 1.729,-1.341 3.439,-2.157c1.709,-0.816 2.914,-1.69 3.614,-2.623c0.544,0.933 1.437,1.963 2.681,3.089c1.36,1.244 2.506,1.866 3.439,1.866c0.622,0 0.933,-0.369 0.933,-1.108l0,-5.246c0,-2.603 -1.671,-3.905 -5.013,-3.905c-3.342,0 -5.81,1.166 -7.403,3.497l0,-6.587c0,-2.992 -1.069,-5.09 -3.206,-6.295c2.914,0 5.829,-0.621 8.743,-1.865c3.148,-1.36 5.46,-3.167 6.937,-5.421c1.865,3.536 4.624,5.965 8.277,7.286l-0.408,0c-1.671,0 -3.109,0.535 -4.314,1.603c-1.204,1.069 -1.962,2.458 -2.273,4.168c-0.544,-1.477 -1.36,-2.895 -2.448,-4.255c-1.36,-1.71 -2.662,-2.565 -3.905,-2.565c-0.622,0 -0.933,0.35 -0.933,1.049c0,2.72 0.214,4.605 0.641,5.654c0.739,1.827 2.254,2.74 4.547,2.74c2.759,0 5.188,-1.205 7.286,-3.614l0,8.568c0,2.798 0.933,4.761 2.798,5.888Z" style="fill:#2452bb;fill-rule:nonzero;"/><path d="M53.218,39.753c-1.593,0.855 -2.837,1.827 -3.73,2.915c-0.428,0.505 -1.263,1.846 -2.507,4.022c-1.166,-2.021 -2.001,-3.342 -2.506,-3.964c-1.011,-1.205 -2.235,-2.196 -3.673,-2.973c1.322,-0.622 2.196,-1.457 2.623,-2.506c0.272,-0.7 0.408,-1.904 0.408,-3.614l0,-7.811c0,-1.127 -0.252,-2.118 -0.757,-2.973c-0.583,-1.01 -1.399,-1.515 -2.448,-1.515c-1.05,0 -1.866,0.505 -2.449,1.515c-0.505,0.855 -0.757,1.846 -0.757,2.973l0,7.811c0,1.671 0.155,2.875 0.466,3.614c0.427,1.049 1.302,1.884 2.623,2.506c-1.516,0.816 -2.759,1.807 -3.731,2.973c-0.505,0.583 -1.34,1.904 -2.506,3.964c-0.544,-0.972 -1.379,-2.312 -2.506,-4.022c-0.972,-1.127 -2.196,-2.099 -3.673,-2.915c1.322,-0.622 2.196,-1.457 2.623,-2.506c0.311,-0.739 0.467,-1.943 0.467,-3.614l0,-7.811c0,-2.331 -1.03,-4.022 -3.09,-5.071c1.71,-0.894 2.973,-1.826 3.789,-2.798c0.661,-0.738 1.457,-2.079 2.39,-4.022c2.098,4.236 4.216,6.354 6.354,6.354c2.137,0 4.255,-2.118 6.353,-6.354c1.127,2.176 1.924,3.536 2.39,4.08c0.777,0.894 2.059,1.807 3.847,2.74c-2.06,1.01 -3.089,2.701 -3.089,5.071l0,7.811c0,1.593 0.155,2.798 0.466,3.614c0.389,1.01 1.263,1.846 2.623,2.506Z" style="fill:#2452bb;fill-rule:nonzero;"/><path d="M81.255,39.986c-1.632,0.894 -2.875,1.827 -3.73,2.798c-0.7,0.777 -1.516,2.079 -2.449,3.906c-2.176,-3.925 -4.313,-5.888 -6.411,-5.888c-2.138,0 -4.294,1.963 -6.47,5.888c-1.127,-2.099 -1.885,-3.401 -2.274,-3.906c-0.855,-1.049 -2.04,-1.982 -3.555,-2.798c2.02,-0.621 3.031,-2.448 3.031,-5.479c0,-2.137 -0.583,-3.75 -1.749,-4.838c1.244,0.583 2.351,0.875 3.322,0.875c1.166,0 2.468,-0.525 3.906,-1.574c1.438,-1.049 2.526,-1.574 3.264,-1.574c1.01,0 2.118,0.544 3.323,1.632l0,-4.08c0,-0.855 -0.282,-1.642 -0.846,-2.361c-0.563,-0.719 -1.233,-1.078 -2.011,-1.078c-2.098,0 -4.235,1.962 -6.411,5.887c-1.089,-2.021 -1.846,-3.303 -2.274,-3.847c-0.777,-1.011 -1.962,-1.924 -3.555,-2.74c1.709,-0.816 2.934,-1.748 3.672,-2.798c0.466,-0.66 1.185,-2.04 2.157,-4.138c2.02,4.352 4.177,6.528 6.47,6.528c2.254,0 4.391,-2.176 6.411,-6.528c0.855,1.904 1.633,3.283 2.332,4.138c0.855,0.972 2.137,1.904 3.847,2.798c-0.933,0.428 -1.69,1.127 -2.273,2.099c-0.583,0.971 -0.874,1.981 -0.874,3.031l0,7.869c0,1.671 0.155,2.895 0.466,3.672c0.388,1.01 1.282,1.846 2.681,2.506Zm-9.792,-4.954l0,-3.672c-0.622,-1.633 -1.613,-2.449 -2.973,-2.449c-1.749,0 -2.623,1.769 -2.623,5.305c0,1.671 0.097,2.836 0.291,3.497c0.389,1.282 1.205,1.924 2.448,1.924c1.904,0 2.857,-1.535 2.857,-4.605Z" style="fill:#2452bb;fill-rule:nonzero;"/><path d="M105.911,39.753c-1.981,0.195 -3.934,0.952 -5.858,2.274c-1.923,1.321 -3.39,2.875 -4.4,4.663c-0.972,-1.71 -2.585,-3.226 -4.838,-4.547c-2.021,-1.205 -4.12,-2.001 -6.296,-2.39c2.215,-1.01 3.323,-2.681 3.323,-5.013l0,-7.461c0,-3.031 -1.185,-5.207 -3.556,-6.528c3.031,0 5.849,-0.544 8.452,-1.632c2.876,-1.205 5.11,-2.953 6.703,-5.246c0.933,1.787 1.788,3.147 2.565,4.08c0.972,1.127 2.273,2.06 3.905,2.798c-0.971,0.855 -1.709,2.273 -2.215,4.255c-0.544,2.176 -1.165,3.653 -1.865,4.43c-1.36,1.554 -3.789,2.778 -7.286,3.672l-0.058,0.991c-0.156,2.604 1.185,4.314 4.022,5.13c1.438,0.388 3.905,0.563 7.402,0.524Zm-6.295,-12.94c0,-1.127 -0.583,-2.497 -1.748,-4.109c-1.166,-1.613 -2.274,-2.419 -3.323,-2.419l0,11.483c1.321,-0.272 2.497,-0.836 3.527,-1.691c1.029,-0.855 1.544,-1.943 1.544,-3.264Z" style="fill:#2452bb;fill-rule:nonzero;"/><path d="M135.347,39.52c-1.632,0.894 -2.895,1.904 -3.788,3.031c-0.505,0.622 -1.38,2.001 -2.623,4.139c-1.244,-2.138 -2.118,-3.517 -2.623,-4.139c-0.894,-1.127 -2.157,-2.137 -3.789,-3.031c1.71,-0.894 2.565,-2.331 2.565,-4.313c0,-2.099 -0.719,-3.517 -2.157,-4.255c-1.36,0.621 -2.798,1.068 -4.314,1.34l0,0.933c0,1.71 0.175,2.973 0.525,3.789c0.466,1.049 1.399,1.884 2.798,2.506c-1.554,0.816 -2.856,1.826 -3.905,3.031c-0.7,0.777 -1.613,2.157 -2.74,4.139c-1.088,-1.866 -2.021,-3.245 -2.798,-4.139c-1.01,-1.166 -2.331,-2.176 -3.964,-3.031c1.361,-0.661 2.254,-1.496 2.682,-2.506c0.311,-0.739 0.466,-1.963 0.466,-3.673l0,-6.645c0,-3.225 -1.069,-5.479 -3.206,-6.761c1.477,-0.972 2.429,-1.982 2.856,-3.031c0.272,-0.7 0.408,-2.06 0.408,-4.08c0,-3.187 -1.127,-5.246 -3.38,-6.179c0.272,0.039 0.641,0.058 1.107,0.058c1.826,0 4.304,-1.117 7.432,-3.351c3.128,-2.235 5.508,-3.352 7.14,-3.352c1.71,0 3.197,0.466 4.46,1.399c1.262,0.933 1.894,2.176 1.894,3.73c0,1.05 -0.34,1.943 -1.02,2.682c-0.68,0.738 -1.545,1.107 -2.594,1.107c-2.137,0 -3.206,-0.991 -3.206,-2.973c0,-0.816 0.253,-1.496 0.758,-2.04c0.505,-0.544 1.146,-0.816 1.923,-0.816c1.438,0 2.274,0.952 2.507,2.856c0.078,-0.388 0.116,-0.66 0.116,-0.816c0,-0.932 -0.388,-1.719 -1.165,-2.36c-0.778,-0.641 -1.691,-0.962 -2.74,-0.962c-2.254,0 -3.925,1.107 -5.013,3.322c-0.894,1.788 -1.341,3.867 -1.341,6.237l0,7.753c2.643,0 4.566,-0.447 5.771,-1.341c1.088,-0.777 2.235,-2.409 3.439,-4.896c0.777,1.515 1.671,2.934 2.681,4.255c1.477,1.865 2.721,2.798 3.731,2.798c-2.098,0.544 -3.672,1.613 -4.721,3.206c-0.661,1.049 -1.691,2.662 -3.09,4.838c0.7,-0.194 1.302,-0.292 1.807,-0.292c2.06,0 3.867,0.933 5.421,2.798c-1.166,1.399 -1.749,2.837 -1.749,4.314c0,2.02 1.147,3.594 3.439,4.721Zm-9.676,-14.514c0,-1.399 -0.514,-2.487 -1.544,-3.264c-1.03,-0.777 -2.264,-1.166 -3.702,-1.166c-0.544,0 -1.146,0.058 -1.807,0.175l0,10.084c1.943,-0.311 3.517,-0.874 4.722,-1.69c1.554,-1.05 2.331,-2.429 2.331,-4.139Z" style="fill:#2452bb;fill-rule:nonzero;"/><path d="M163.035,39.695c-6.49,0.117 -11.017,2.448 -13.582,6.995c-0.893,-1.555 -2.574,-3.09 -5.042,-4.605c-2.467,-1.516 -4.575,-2.312 -6.324,-2.39c0.933,-0.039 1.71,-0.836 2.332,-2.39c0.544,-1.321 0.816,-2.506 0.816,-3.556l0,-6.528c0,-3.186 -1.03,-5.363 -3.09,-6.528c2.604,0 5.149,-0.583 7.636,-1.749c2.682,-1.244 4.625,-2.914 5.829,-5.013c0.816,1.438 2.487,2.905 5.013,4.401c2.526,1.496 4.644,2.283 6.354,2.361c-2.099,0.505 -3.148,2.564 -3.148,6.178l0,6.529c0,3.108 1.069,5.207 3.206,6.295Zm-9.618,0.583l0,-13.115c0,-1.671 -0.602,-3.187 -1.807,-4.547c-0.622,-0.699 -1.943,-1.729 -3.963,-3.089l0,14.164c0,2.565 1.923,4.76 5.77,6.587Z" style="fill:#2452bb;fill-rule:nonzero;"/><path d="M203.488,39.753c-1.516,0.816 -2.74,1.807 -3.673,2.973c-0.544,0.699 -1.379,2.021 -2.506,3.964c-1.127,-1.943 -1.963,-3.265 -2.507,-3.964c-0.932,-1.166 -2.156,-2.157 -3.672,-2.973c1.321,-0.622 2.196,-1.457 2.623,-2.506c0.272,-0.7 0.408,-1.904 0.408,-3.614l0,-7.811c0,-1.127 -0.252,-2.118 -0.757,-2.973c-0.583,-1.01 -1.399,-1.515 -2.449,-1.515c-1.049,0 -1.865,0.505 -2.448,1.515c-0.505,0.855 -0.758,1.846 -0.758,2.973l0,7.811c0,1.787 0.136,3.011 0.408,3.672c0.389,0.972 1.283,1.788 2.682,2.448c-1.516,0.816 -2.759,1.807 -3.731,2.973c-0.505,0.583 -1.34,1.904 -2.506,3.964c-1.166,-2.021 -2.001,-3.342 -2.507,-3.964c-1.01,-1.205 -2.234,-2.196 -3.672,-2.973c1.321,-0.622 2.196,-1.457 2.623,-2.506c0.272,-0.7 0.408,-1.904 0.408,-3.614l0,-7.811c0,-1.127 -0.252,-2.118 -0.758,-2.973c-0.582,-1.01 -1.398,-1.515 -2.448,-1.515c-1.049,0 -1.865,0.505 -2.448,1.515c-0.505,0.855 -0.758,1.846 -0.758,2.973l0,7.811c0,1.787 0.136,3.011 0.408,3.672c0.389,0.972 1.283,1.788 2.682,2.448c-1.516,0.816 -2.759,1.807 -3.731,2.973c-0.505,0.583 -1.34,1.904 -2.506,3.964c-0.544,-0.972 -1.38,-2.312 -2.507,-4.022c-0.971,-1.127 -2.195,-2.099 -3.672,-2.915c1.321,-0.622 2.196,-1.457 2.623,-2.506c0.311,-0.739 0.466,-1.943 0.466,-3.614l0,-7.811c0,-1.01 -0.291,-1.991 -0.874,-2.943c-0.583,-0.953 -1.321,-1.642 -2.215,-2.07c1.749,-0.894 3.021,-1.797 3.818,-2.71c0.797,-0.913 1.584,-2.303 2.361,-4.168c2.098,4.236 4.216,6.354 6.353,6.354c2.138,0 4.255,-2.118 6.354,-6.354c2.098,4.236 4.216,6.354 6.353,6.354c2.138,0 4.255,-2.118 6.354,-6.354c1.166,2.332 1.923,3.711 2.273,4.139c0.777,0.932 2.079,1.845 3.906,2.739c-2.021,0.933 -3.031,2.604 -3.031,5.013l0,7.811c0,1.749 0.136,2.953 0.408,3.614c0.427,1.049 1.301,1.884 2.623,2.506Z" style="fill:#2452bb;fill-rule:nonzero;"/><path d="M231.758,40.103c-1.788,0.855 -3.051,1.7 -3.789,2.536c-0.738,0.835 -1.554,2.185 -2.448,4.051c-2.099,-4.275 -4.216,-6.412 -6.354,-6.412c-2.137,0 -4.255,2.137 -6.353,6.412c-1.011,-2.099 -1.788,-3.439 -2.332,-4.022c-0.777,-0.855 -2.059,-1.71 -3.847,-2.565c0.894,-0.466 1.632,-1.214 2.215,-2.244c0.583,-1.03 0.874,-2.069 0.874,-3.119l0,-7.81c0,-1.671 -0.155,-2.837 -0.466,-3.498c-0.388,-0.855 -1.263,-1.612 -2.623,-2.273c2.798,-1.554 4.877,-3.964 6.237,-7.228c1.321,3.303 3.381,5.712 6.179,7.228c-1.36,0.661 -2.235,1.418 -2.623,2.273c-0.311,0.661 -0.467,1.827 -0.467,3.498l0,7.81c0,1.011 0.292,1.904 0.875,2.682c0.583,0.777 1.36,1.165 2.331,1.165c0.972,0 1.749,-0.369 2.332,-1.107c0.583,-0.738 0.874,-1.652 0.874,-2.74l0,-7.81c0,-1.749 -0.136,-2.915 -0.408,-3.498c-0.388,-0.855 -1.263,-1.612 -2.623,-2.273c2.798,-1.554 4.858,-3.964 6.179,-7.228c1.321,3.303 3.4,5.712 6.237,7.228c-1.36,0.661 -2.235,1.418 -2.623,2.273c-0.311,0.661 -0.467,1.827 -0.467,3.498l0,7.81c0,1.05 0.292,2.089 0.875,3.119c0.583,1.03 1.321,1.778 2.215,2.244Z" style="fill:#2452bb;fill-rule:nonzero;"/></g></svg>